<?xml version="1.0" encoding="UTF-8"?>
<svg version="1.1" xmlns="http://www.w3.org/2000/svg" width="500" height="500">
<path d="M0 0 C1.76502741 0.02440394 3.53006274 0.04824159 5.29510498 0.07154846 C9.86520644 0.13337085 14.43516164 0.20270641 19.00512695 0.27380371 C23.69866466 0.34542788 28.39230332 0.40967492 33.0859375 0.47460938 C42.23969433 0.60230173 51.3933133 0.73796007 60.546875 0.87890625 C64.70515802 9.14167886 68.79607912 17.42791412 72.75390625 25.7890625 C78.42753691 37.70917047 84.30984533 49.5194804 90.234375 61.31640625 C91.22480333 63.29222049 92.21503796 65.26813185 93.20507812 67.24414062 C96.75417446 74.32628956 100.30460724 81.40776309 103.86230469 88.4855957 C107.8594278 96.44605845 111.7571839 104.44356173 115.50390625 112.52539062 C118.24358946 118.35067665 121.19420709 124.04734505 124.20703125 129.734375 C129.19970491 139.16071742 134.017894 148.66781343 138.77905273 158.21289062 C140.10947711 160.87911088 141.44418355 163.54315646 142.77929688 166.20703125 C144.95686419 170.55746801 147.11406306 174.917594 149.26202393 179.28271484 C150.57344457 181.93259316 151.90544074 184.57153279 153.23779297 187.2109375 C154.08000679 188.91231261 154.92135108 190.6141185 155.76171875 192.31640625 C156.15911758 193.09129395 156.55651642 193.86618164 156.96595764 194.66455078 C159.14697368 199.14186605 160.07939141 201.90546544 158.546875 206.87890625 C157.3046875 209.71875 157.3046875 209.71875 155.671875 212.81640625 C155.02890813 214.0573832 154.38846386 215.29966908 153.75 216.54296875 C153.39744141 217.22907227 153.04488281 217.91517578 152.68164062 218.62207031 C150.9884874 221.98943444 149.38972026 225.3998185 147.78198242 228.80859375 C142.31346287 240.39938155 136.50186147 251.78158115 130.546875 263.12890625 C128.45740092 267.11506005 126.40645846 271.11495794 124.42578125 275.15625 C119.74501999 284.63779204 114.72359655 293.56080747 109.546875 302.87890625 C44.206875 302.87890625 -21.133125 302.87890625 -88.453125 302.87890625 C-89.113125 304.85890625 -89.773125 306.83890625 -90.453125 308.87890625 C-91.53597707 311.28040933 -92.6416656 313.64992814 -93.796875 316.015625 C-94.28459381 317.02428116 -94.28459381 317.02428116 -94.78216553 318.05331421 C-95.83493199 320.22642357 -96.89362212 322.39657419 -97.953125 324.56640625 C-98.31482788 325.31010468 -98.67653076 326.0538031 -99.04919434 326.82003784 C-103.51104362 335.99193265 -108.04565921 345.11084593 -112.86083984 354.10351562 C-118.73656359 365.08995919 -124.19473549 376.29375859 -129.73046875 387.45410156 C-130.49911692 389.00336865 -131.26843591 390.55230319 -132.03857422 392.10083008 C-132.70879493 393.44866943 -133.37722648 394.79740067 -134.04345703 396.1472168 C-135.38946581 398.8544372 -136.77211592 401.35739263 -138.453125 403.87890625 C-139.113125 403.87890625 -139.773125 403.87890625 -140.453125 403.87890625 C-144.77165838 395.45364766 -148.89214551 386.98407661 -152.703125 378.31640625 C-156.86974027 368.89250558 -161.58265063 359.8065196 -166.39453125 350.69921875 C-170.81825131 342.31876593 -175.05279337 333.84570592 -179.23535156 325.34277344 C-180.37470112 323.03757783 -181.53326818 320.74302951 -182.6953125 318.44921875 C-183.34488066 317.13467268 -183.99340093 315.81960803 -184.640625 314.50390625 C-185.19105469 313.40304687 -185.74148437 312.3021875 -186.30859375 311.16796875 C-188.65113894 304.43614946 -187.8824818 300.33771142 -184.99609375 294 C-183.89319854 291.76437443 -182.77378063 289.53684717 -181.640625 287.31640625 C-181.04426336 286.12011709 -180.44955923 284.92300034 -179.85644531 283.72509766 C-178.64714484 281.28517989 -177.43099191 278.84886194 -176.21044922 276.41455078 C-173.63323711 271.22933465 -171.17270832 265.99095001 -168.703125 260.75390625 C-165.22274707 253.42893207 -161.57836359 246.22603137 -157.7277832 239.08959961 C-154.52711707 233.12013167 -151.62666405 227.02783484 -148.75732422 220.89355469 C-146.39580198 215.84946667 -143.96629662 210.84908226 -141.453125 205.87890625 C-138.97765739 200.98318591 -136.58100613 196.05965724 -134.25862122 191.08937073 C-130.93919679 183.99507444 -127.51365368 176.99167496 -123.82421875 170.08203125 C-118.82771993 160.65163876 -113.99327547 151.14538736 -109.22094727 141.59985352 C-107.89188246 138.9439191 -106.55641195 136.29126984 -105.22070312 133.63867188 C-100.43751459 124.1019672 -95.83559595 114.51445424 -91.55039978 104.7424469 C-89.11088244 99.20601658 -86.42637002 93.84104069 -83.578125 88.50390625 C-83.11631836 87.63677002 -82.65451172 86.76963379 -82.17871094 85.8762207 C-81.62618652 84.85081177 -81.62618652 84.85081177 -81.0625 83.8046875 C-76.77825026 75.77740773 -72.7786212 67.60378663 -68.73291016 59.45458984 C-66.83455814 55.6339844 -64.9251873 51.81891739 -63.015625 48.00390625 C-62.41269685 46.79820887 -61.80982911 45.59248127 -61.20703125 44.38671875 C-60.32231135 42.61727895 -59.43733086 40.84792527 -58.53881836 39.08544922 C-55.48019171 33.05525214 -52.68850093 26.90847814 -49.890625 20.75390625 C-42.01373953 3.43952078 -42.01373953 3.43952078 -39.453125 0.87890625 C-36.45689403 0.55640263 -33.54961167 0.35546729 -30.54394531 0.24633789 C-29.64791218 0.20830834 -28.75187904 0.1702788 -27.82869339 0.13109684 C-18.54764033 -0.22418421 -9.28418397 -0.15319219 0 0 Z M9.546875 107.87890625 C2.00653094 118.97899414 -3.52843349 131.12599124 -9.20556641 143.24169922 C-11.1020608 147.25068795 -13.10145728 151.20301556 -15.10473633 155.15966797 C-17.49977829 159.91851483 -19.82787076 164.70853092 -22.140625 169.5078125 C-22.47209534 170.19527557 -22.80356567 170.88273865 -23.14508057 171.59103394 C-24.8252595 175.07720083 -26.50209037 178.56493313 -28.17480469 182.0546875 C-28.80395702 183.3620174 -29.43318571 184.66931056 -30.0625 185.9765625 C-30.61905273 187.13679932 -31.17560547 188.29703613 -31.74902344 189.49243164 C-32.99009821 191.95875659 -34.26964238 194.31049945 -35.66503906 196.68530273 C-37.61596977 199.55973729 -37.61596977 199.55973729 -37.453125 201.87890625 C-6.433125 201.87890625 24.586875 201.87890625 56.546875 201.87890625 C55.7521291 198.69992263 54.93395778 196.35948137 53.54296875 193.45703125 C53.13667236 192.6057666 52.73037598 191.75450195 52.31176758 190.87744141 C51.87372803 189.9704248 51.43568848 189.0634082 50.984375 188.12890625 C50.30121216 186.70457275 50.30121216 186.70457275 49.60424805 185.25146484 C46.77029795 179.36109933 43.88346053 173.50100971 40.93041992 167.66943359 C38.60912754 163.06295155 36.36133814 158.42334424 34.13671875 153.76953125 C26.69413654 138.21733951 19.03609389 122.89644726 10.546875 107.87890625 C10.216875 107.87890625 9.886875 107.87890625 9.546875 107.87890625 Z " fill="#f4e157" transform="translate(222.453125,47.12109375)"/>
<path d="M0 0 C2.16874252 0.50603992 3.99967627 0.99983813 6 2 C6.625 4.5625 6.625 4.5625 7 7 C7.99 7.33 8.98 7.66 10 8 C11.07714844 9.6784668 11.07714844 9.6784668 12.109375 11.94921875 C12.7295752 13.28158569 12.7295752 13.28158569 13.36230469 14.64086914 C13.82024414 15.64625732 14.27818359 16.65164551 14.75 17.6875 C15.80838405 19.95244873 16.87129462 22.21528507 17.9375 24.4765625 C18.23718689 25.11269974 18.53687378 25.74883698 18.84564209 26.4042511 C23.64526064 36.5390508 28.72230609 46.53961796 33.75 56.5625 C34.74192081 58.54188133 35.73378375 60.52129166 36.72558594 62.50073242 C40.25099072 69.534668 43.77744759 76.5680715 47.31103516 83.59790039 C51.30963017 91.56129014 55.20893102 99.56168334 58.95703125 107.64648438 C61.69671446 113.4717704 64.64733209 119.1684388 67.66015625 124.85546875 C72.65282991 134.28181117 77.471019 143.78890718 82.23217773 153.33398438 C83.56260211 156.00020463 84.89730855 158.66425021 86.23242188 161.328125 C88.40998919 165.67856176 90.56718806 170.03868775 92.71514893 174.40380859 C94.02656957 177.05368691 95.35856574 179.69262654 96.69091797 182.33203125 C97.53313179 184.03340636 98.37447608 185.73521225 99.21484375 187.4375 C99.61224258 188.2123877 100.00964142 188.98727539 100.41908264 189.78564453 C102.60009868 194.2629598 103.53251641 197.02655919 102 202 C100.7578125 204.83984375 100.7578125 204.83984375 99.125 207.9375 C98.48203313 209.17847695 97.84158886 210.42076283 97.203125 211.6640625 C96.85056641 212.35016602 96.49800781 213.03626953 96.13476562 213.74316406 C94.4416124 217.11052819 92.84284526 220.52091225 91.23510742 223.9296875 C85.76735291 235.51885377 79.95572595 246.89915703 74.00390625 258.24609375 C71.52814087 262.96988806 69.11347738 267.7192061 66.75 272.5 C62.66661146 280.75486083 58.34198923 288.87887199 54 297 C52.68 297 51.36 297 50 297 C49.62875 295.906875 49.2575 294.81375 48.875 293.6875 C47.54038008 290.09673689 45.87274048 286.84018637 44 283.5 C41.52221201 279.06574079 39.62952098 274.80708688 38 270 C37.608125 268.845 37.21625 267.69 36.8125 266.5 C36.544375 265.675 36.27625 264.85 36 264 C35.34 264 34.68 264 34 264 C32.55573176 260.65537882 31.12574073 257.3103977 29.7578125 253.93359375 C29.32210937 252.86238281 28.88640625 251.79117188 28.4375 250.6875 C28.02371094 249.66011719 27.60992187 248.63273438 27.18359375 247.57421875 C26.13697819 244.90560464 26.13697819 244.90560464 24 243 C22.13011787 239.03584988 20.65783106 235.34168501 20 231 C19.34 231 18.68 231 18 231 C18 230.01 18 229.02 18 228 C17.34 228 16.68 228 16 228 C15.72027344 227.29617188 15.44054687 226.59234375 15.15234375 225.8671875 C12.22334221 218.65299078 8.93133771 211.74369289 5.35546875 204.8359375 C4 202 4 202 4 200 C3.34 200 2.68 200 2 200 C-5.49919749 185.87259424 -12.66106662 171.63036527 -19.49902344 157.17236328 C-22.31891056 151.21243919 -25.14917396 145.2576827 -28 139.3125 C-28.29406738 138.69875519 -28.58813477 138.08501038 -28.89111328 137.45266724 C-33.23655382 128.40610048 -37.82921572 119.53158705 -42.80078125 110.81176758 C-43.22488281 110.06564209 -43.64898437 109.3195166 -44.0859375 108.55078125 C-44.6435376 107.58652222 -44.6435376 107.58652222 -45.21240234 106.6027832 C-46 105 -46 105 -46 103 C-46.99 102.67 -47.98 102.34 -49 102 C-49 100.35 -49 98.7 -49 97 C-48.34 97 -47.68 97 -47 97 C-46.80664062 96.39671875 -46.61328125 95.7934375 -46.4140625 95.171875 C-46.15367187 94.37265625 -45.89328125 93.5734375 -45.625 92.75 C-45.24214844 91.56664062 -45.24214844 91.56664062 -44.8515625 90.359375 C-44.04826333 88.13372042 -43.10288338 86.09068328 -42 84 C-41.34 84 -40.68 84 -40 84 C-39.896875 83.4225 -39.79375 82.845 -39.6875 82.25 C-39 80 -39 80 -37.6484375 78.23046875 C-35.72847666 75.63260705 -34.36564347 72.95896489 -32.9375 70.0625 C-32.43089844 69.04285156 -31.92429688 68.02320312 -31.40234375 66.97265625 C-29.00658854 61.89418908 -27.65997008 57.60974565 -27 52 C-26.34 52 -25.68 52 -25 52 C-24.85498047 51.21882813 -24.85498047 51.21882813 -24.70703125 50.421875 C-23.75648787 47.16587005 -22.23105549 44.25479337 -20.6875 41.25 C-20.37135742 40.62456299 -20.05521484 39.99912598 -19.72949219 39.35473633 C-18.42089143 36.76806883 -17.09899033 34.18898155 -15.75390625 31.62109375 C-13.2999523 26.89460656 -11.5558019 22.09171533 -10 17 C-9.34 17 -8.68 17 -8 17 C-7.7525 16.154375 -7.505 15.30875 -7.25 14.4375 C-5.86026373 10.61572526 -4.08879162 7.48131937 -2 4 C-1.34 4 -0.68 4 0 4 C0 2.68 0 1.36 0 0 Z " fill="#f4e157" transform="translate(279,52)"/>
<path d="M0 0 C32.01 0 64.02 0 97 0 C97.33 0.99 97.66 1.98 98 3 C98.66 3 99.32 3 100 3 C101.43969458 6.0197921 102.87635087 9.04102035 104.3125 12.0625 C104.71662109 12.91005859 105.12074219 13.75761719 105.53710938 14.63085938 C112 28.23971037 112 28.23971037 112 31 C112.66 31 113.32 31 114 31 C114 31.99 114 32.98 114 34 C114.66 34 115.32 34 116 34 C119.71171171 41.26126126 119.71171171 41.26126126 121 44.5625 C122.11446525 47.27900905 123.57805105 49.71393568 125.0546875 52.24609375 C127.50898036 56.79971977 128.6110799 62.03957108 130 67 C130.66 67 131.32 67 132 67 C134.59711242 72.00263458 137.05213418 76.97979796 139.0625 82.25 C140.23366227 85.30168706 141.30980742 87.45143367 143.1875 90.1875 C145 93 145 93 146 100 C81.98 100 17.96 100 -48 100 C-47.01 97.03 -46.02 94.06 -45 91 C-44.31914716 88.67076659 -43.64692526 86.33888362 -43 84 C-42.34 84 -41.68 84 -41 84 C-40.8453125 82.948125 -40.8453125 82.948125 -40.6875 81.875 C-39.90257613 78.59259109 -38.55636715 75.98822493 -37 73 C-36.31471955 71.34089996 -35.64108137 69.67667436 -35 68 C-34.34 68 -33.68 68 -33 68 C-32.62875 66.7625 -32.62875 66.7625 -32.25 65.5 C-30.8100132 61.46803697 -28.96181785 57.79661152 -27 54 C-26.24795432 52.50102459 -25.49787761 51.00105932 -24.75 49.5 C-24.1725 48.345 -23.595 47.19 -23 46 C-22.34 46 -21.68 46 -21 46 C-20.80664062 45.33613281 -20.61328125 44.67226563 -20.4140625 43.98828125 C-17.82776801 35.21792619 -17.82776801 35.21792619 -16 31 C-15.34 31 -14.68 31 -14 31 C-13.71125 30.113125 -13.4225 29.22625 -13.125 28.3125 C-12.16851252 25.49617576 -11.13201054 22.74916844 -10 20 C-9.34 20 -8.68 20 -8 20 C-7.90203125 19.443125 -7.8040625 18.88625 -7.703125 18.3125 C-6.58748557 12.6188919 -4.77761221 8.09228905 -2 3 C-1.34 3 -0.68 3 0 3 C0 2.01 0 1.02 0 0 Z " fill="#f4e157" transform="translate(183,249)"/>
<path d="M0 0 C0.72822464 0.00141495 1.45644928 0.0028299 2.20674133 0.00428772 C4.52979664 0.00987966 6.85275513 0.02243063 9.17578125 0.03515625 C10.75195173 0.04017229 12.32812373 0.04473502 13.90429688 0.04882812 C17.76566223 0.05984645 21.62695533 0.07710551 25.48828125 0.09765625 C26.61328125 1.80810547 26.61328125 1.80810547 27.48828125 4.09765625 C26.80078125 6.32080078 26.80078125 6.32080078 25.48828125 8.73046875 C25.01261719 9.61992187 24.53695312 10.509375 24.046875 11.42578125 C23.53253906 12.34875 23.01820313 13.27171875 22.48828125 14.22265625 C22.00488281 15.12242187 21.52148438 16.0221875 21.0234375 16.94921875 C19.5423535 19.68352767 18.01727296 22.38990506 16.48828125 25.09765625 C15.98039063 26.04608398 15.4725 26.99451172 14.94921875 27.97167969 C14.19511719 29.3295459 14.19511719 29.3295459 13.42578125 30.71484375 C12.98105469 31.5332373 12.53632813 32.35163086 12.078125 33.19482422 C10.04842565 35.62410504 8.57433649 35.79646663 5.48828125 36.09765625 C5.24392334 36.91556641 5.24392334 36.91556641 4.99462891 37.75 C3.17009921 43.56266097 0.77413018 48.75716022 -2.13671875 54.09765625 C-2.79269043 55.32270874 -2.79269043 55.32270874 -3.46191406 56.57250977 C-4.36477925 58.25830293 -5.27037981 59.94263395 -6.17871094 61.62548828 C-8.22431128 65.41921522 -10.24409509 69.22649625 -12.26171875 73.03515625 C-12.62982666 73.72859131 -12.99793457 74.42202637 -13.37719727 75.13647461 C-16.52111919 81.07515119 -19.54846218 87.06655758 -22.51171875 93.09765625 C-28.22162086 89.8506683 -28.22162086 89.8506683 -29.51171875 86.09765625 C-29.51171875 85.10765625 -29.51171875 84.11765625 -29.51171875 83.09765625 C-30.17171875 83.09765625 -30.83171875 83.09765625 -31.51171875 83.09765625 C-31.69480591 84.19912491 -31.69480591 84.19912491 -31.8815918 85.32284546 C-32.49479713 88.02314065 -33.32378287 90.04659662 -34.59375 92.49462891 C-35.02510254 93.33385895 -35.45645508 94.17308899 -35.90087891 95.03775024 C-36.37058105 95.93665985 -36.8402832 96.83556946 -37.32421875 97.76171875 C-37.81196777 98.70840424 -38.2997168 99.65508972 -38.80224609 100.63046265 C-40.36623965 103.66424791 -41.93838271 106.69370696 -43.51171875 109.72265625 C-45.55749095 113.67106751 -47.59831375 117.62199983 -49.63671875 121.57421875 C-50.1366333 122.53877991 -50.63654785 123.50334106 -51.15161133 124.49713135 C-53.57890337 129.20951145 -55.92880886 133.93762954 -58.12890625 138.76074219 C-58.53351074 139.64506927 -58.93811523 140.52939636 -59.35498047 141.44052124 C-60.10708553 143.10214085 -60.84644541 144.76960902 -61.57080078 146.44351196 C-62.57421875 148.66552734 -62.57421875 148.66552734 -64.51171875 152.09765625 C-66.6328125 152.81216431 -66.6328125 152.81216431 -68.51171875 153.09765625 C-72.21927601 145.79642575 -75.82693857 138.45735214 -79.32861328 131.05517578 C-83.99462926 121.19952607 -88.85470079 111.47831987 -93.93994141 101.83251953 C-99.2287003 91.78645752 -104.30831878 81.63720931 -109.33251953 71.45654297 C-110.30609621 69.50898648 -111.32319218 67.58325043 -112.3515625 65.6640625 C-113.51171875 63.09765625 -113.51171875 63.09765625 -113.51171875 59.09765625 C-107.82698683 57.86852502 -102.29158518 58.02964729 -96.51171875 58.09765625 C-84.62745011 58.17452055 -72.76550321 57.92935394 -60.88671875 57.59765625 C-60.02336914 57.57364746 -59.16001953 57.54963867 -58.27050781 57.52490234 C-53.35076908 57.38714966 -48.43119467 57.24448296 -43.51171875 57.09765625 C-43.88047119 56.38633545 -44.24922363 55.67501465 -44.62915039 54.94213867 C-46.28787627 51.72837369 -47.93118544 48.50697018 -49.57421875 45.28515625 C-50.15494141 44.16560547 -50.73566406 43.04605469 -51.33398438 41.89257812 C-51.87861328 40.81943359 -52.42324219 39.74628906 -52.984375 38.640625 C-53.49234619 37.6508667 -54.00031738 36.6611084 -54.52368164 35.64135742 C-55.51171875 33.09765625 -55.51171875 33.09765625 -54.51171875 30.09765625 C-36.03171875 30.42765625 -17.55171875 30.75765625 1.48828125 31.09765625 C-0.79291997 24.74193916 -0.79291997 24.74193916 -3.7734375 19.02734375 C-4.16982422 18.35832031 -4.56621094 17.68929688 -4.97460938 17 C-5.79761178 15.63751754 -6.62582977 14.2781732 -7.45898438 12.921875 C-9.88746913 8.79863487 -11.04225448 6.03394523 -10.51171875 1.09765625 C-6.9424449 -0.0921017 -3.71224903 -0.0271253 0 0 Z " fill="#f4e157" transform="translate(447.51171875,299.90234375)"/>
<path d="M0 0 C0.72822464 0.00141495 1.45644928 0.0028299 2.20674133 0.00428772 C4.52979664 0.00987966 6.85275513 0.02243063 9.17578125 0.03515625 C10.75195173 0.04017229 12.32812373 0.04473502 13.90429688 0.04882812 C17.76566223 0.05984645 21.62695533 0.07710551 25.48828125 0.09765625 C26.61328125 1.80810547 26.61328125 1.80810547 27.48828125 4.09765625 C26.80078125 6.32080078 26.80078125 6.32080078 25.48828125 8.73046875 C25.01261719 9.61992187 24.53695312 10.509375 24.046875 11.42578125 C23.53253906 12.34875 23.01820313 13.27171875 22.48828125 14.22265625 C22.00488281 15.12242187 21.52148438 16.0221875 21.0234375 16.94921875 C19.5423535 19.68352767 18.01727296 22.38990506 16.48828125 25.09765625 C15.98039062 26.04608398 15.4725 26.99451172 14.94921875 27.97167969 C14.19511719 29.3295459 14.19511719 29.3295459 13.42578125 30.71484375 C12.98105469 31.5332373 12.53632813 32.35163086 12.078125 33.19482422 C10.04842565 35.62410504 8.57433649 35.79646663 5.48828125 36.09765625 C5.24392334 36.91556641 5.24392334 36.91556641 4.99462891 37.75 C3.17009921 43.56266097 0.77413018 48.75716022 -2.13671875 54.09765625 C-2.79269043 55.32270874 -2.79269043 55.32270874 -3.46191406 56.57250977 C-4.36477925 58.25830293 -5.27037981 59.94263395 -6.17871094 61.62548828 C-8.22431128 65.41921522 -10.24409509 69.22649625 -12.26171875 73.03515625 C-12.62982666 73.72859131 -12.99793457 74.42202637 -13.37719727 75.13647461 C-16.52111919 81.07515119 -19.54846218 87.06655758 -22.51171875 93.09765625 C-28.22162086 89.8506683 -28.22162086 89.8506683 -29.51171875 86.09765625 C-29.51171875 85.10765625 -29.51171875 84.11765625 -29.51171875 83.09765625 C-30.50171875 82.60265625 -30.50171875 82.60265625 -31.51171875 82.09765625 C-31.20234375 81.49953125 -30.89296875 80.90140625 -30.57421875 80.28515625 C-29.40962171 78.00808853 -29.40962171 78.00808853 -28.51171875 75.09765625 C-27.52171875 74.76765625 -26.53171875 74.43765625 -25.51171875 74.09765625 C-24.33124403 71.6780916 -24.33124403 71.6780916 -23.44921875 68.78515625 C-22.30677053 65.34863531 -21.14210989 62.35843853 -19.51171875 59.09765625 C-39.97171875 59.09765625 -60.43171875 59.09765625 -81.51171875 59.09765625 C-81.51171875 58.76765625 -81.51171875 58.43765625 -81.51171875 58.09765625 C-68.97171875 57.76765625 -56.43171875 57.43765625 -43.51171875 57.09765625 C-47.49506935 49.32872108 -47.49506935 49.32872108 -51.50024414 41.57104492 C-51.99000732 40.60400635 -52.47977051 39.63696777 -52.984375 38.640625 C-53.49234619 37.6508667 -54.00031738 36.6611084 -54.52368164 35.64135742 C-55.51171875 33.09765625 -55.51171875 33.09765625 -54.51171875 30.09765625 C-36.03171875 30.42765625 -17.55171875 30.75765625 1.48828125 31.09765625 C-0.79291997 24.74193916 -0.79291997 24.74193916 -3.7734375 19.02734375 C-4.16982422 18.35832031 -4.56621094 17.68929688 -4.97460938 17 C-5.79761178 15.63751754 -6.62582977 14.2781732 -7.45898438 12.921875 C-9.88746913 8.79863487 -11.04225448 6.03394523 -10.51171875 1.09765625 C-6.9424449 -0.0921017 -3.71224903 -0.0271253 0 0 Z " fill="#f4e157" transform="translate(447.51171875,299.90234375)"/>
<path d="M0 0 C0.72822464 0.00141495 1.45644928 0.0028299 2.20674133 0.00428772 C4.52979664 0.00987966 6.85275513 0.02243063 9.17578125 0.03515625 C10.75195173 0.04017229 12.32812373 0.04473502 13.90429688 0.04882812 C17.76566223 0.05984645 21.62695533 0.07710551 25.48828125 0.09765625 C26.61328125 1.80810547 26.61328125 1.80810547 27.48828125 4.09765625 C26.80078125 6.32080078 26.80078125 6.32080078 25.48828125 8.73046875 C25.01261719 9.61992187 24.53695312 10.509375 24.046875 11.42578125 C23.53253906 12.34875 23.01820313 13.27171875 22.48828125 14.22265625 C22.00488281 15.12242187 21.52148438 16.0221875 21.0234375 16.94921875 C17.68860501 23.10583258 14.13507843 29.1214997 10.48828125 35.09765625 C7.99466554 33.89384177 5.80685042 32.64336903 3.48828125 31.09765625 C3.48828125 30.10765625 3.48828125 29.11765625 3.48828125 28.09765625 C2.49828125 27.76765625 1.50828125 27.43765625 0.48828125 27.09765625 C-0.75439453 25.25585938 -0.75439453 25.25585938 -1.95703125 22.87890625 C-2.39402344 22.02941406 -2.83101563 21.17992187 -3.28125 20.3046875 C-3.72855469 19.41136719 -4.17585938 18.51804687 -4.63671875 17.59765625 C-5.53379299 15.8365445 -6.43216189 14.07609143 -7.33203125 12.31640625 C-7.72664551 11.53201172 -8.12125977 10.74761719 -8.52783203 9.93945312 C-9.3766902 8.13584588 -9.3766902 8.13584588 -10.51171875 7.09765625 C-10.55252658 5.09807261 -10.55426231 3.09720371 -10.51171875 1.09765625 C-6.9424449 -0.0921017 -3.71224903 -0.0271253 0 0 Z " fill="#f4e157" transform="translate(447.51171875,299.90234375)"/>
<path d="M0 0 C0.1875 2.3125 0.1875 2.3125 0 5 C-1 6 -2 7 -3 8 C-3.7269226 11.10839021 -3.7269226 11.10839021 -4 14 C-4.66 14 -5.32 14 -6 14 C-7.27601331 16.49747023 -8.54586171 18.99777936 -9.8125 21.5 C-10.16892578 22.19609375 -10.52535156 22.8921875 -10.89257812 23.609375 C-12.68235273 27.15608431 -14.29300478 30.66516089 -15.63671875 34.40625 C-17 38 -17 38 -19 40 C-19.226875 41.03125 -19.45375 42.0625 -19.6875 43.125 C-20.54849844 46.48633791 -21.94376441 48.1782128 -24.375 50.625 C-28.43493282 54.92077954 -29.65803882 59.39332435 -31.078125 65.046875 C-31.99478771 67.98330302 -33.09431853 69.63612189 -35 72 C-35.64767793 74.57061311 -35.64767793 74.57061311 -36 77 C-36.495 77.99 -36.495 77.99 -37 79 C-36.0493249 78.99907821 -35.09864981 78.99815641 -34.11916637 78.99720669 C-11.01025402 78.97502847 12.09865696 78.95858438 35.20757771 78.94818783 C46.38277374 78.94302678 57.55796276 78.93598771 68.7331543 78.92456055 C78.47098218 78.91460788 88.20880498 78.90814518 97.94663781 78.90591151 C103.10495297 78.90460539 108.26325359 78.90152578 113.4215641 78.89426994 C118.27318481 78.88750057 123.12478493 78.88538493 127.97640991 78.88689232 C129.76025186 78.88661641 131.54409448 78.88461671 133.32793236 78.88079453 C135.7572875 78.87584299 138.18656419 78.87700716 140.61592102 78.87974548 C141.32700793 78.87683264 142.03809484 78.8739198 142.77072984 78.87091869 C145.79914466 78.88018946 148.10098883 79.03366294 151 80 C151 78.68 151 77.36 151 76 C149.35 76 147.7 76 146 76 C146.37125 75.01 146.37125 75.01 146.75 74 C147.22212677 68.33447879 143.53798342 63.2455801 140 59 C139.01 59.495 139.01 59.495 138 60 C137.04975021 56.30458414 137.04975021 53.69541586 138 50 C137.34 50 136.68 50 136 50 C135.566875 48.5459375 135.566875 48.5459375 135.125 47.0625 C134.35785318 43.89335797 134.35785318 43.89335797 132 43 C132 41.68 132 40.36 132 39 C131.34 39 130.68 39 130 39 C130 37.02 130 35.04 130 33 C129.34 33 128.68 33 128 33 C127.7525 32.278125 127.505 31.55625 127.25 30.8125 C126.10373149 27.91295144 126.10373149 27.91295144 124 25.5 C120.46046147 21.07557684 119.73861466 17.61978477 120 12 C120.33 12.99 120.66 13.98 121 15 C121.66 15 122.32 15 123 15 C126.71171171 22.26126126 126.71171171 22.26126126 128 25.5625 C129.11446525 28.27900905 130.57805105 30.71393568 132.0546875 33.24609375 C134.50898036 37.79971977 135.6110799 43.03957108 137 48 C137.66 48 138.32 48 139 48 C141.59711242 53.00263458 144.05213418 57.97979796 146.0625 63.25 C147.23366227 66.30168706 148.30980742 68.45143367 150.1875 71.1875 C152 74 152 74 153 81 C88.98 81 24.96 81 -41 81 C-40.01 78.03 -39.02 75.06 -38 72 C-37.31914716 69.67076659 -36.64692526 67.33888362 -36 65 C-35.34 65 -34.68 65 -34 65 C-33.8453125 63.948125 -33.8453125 63.948125 -33.6875 62.875 C-32.90257613 59.59259109 -31.55636715 56.98822493 -30 54 C-29.31471955 52.34089996 -28.64108137 50.67667436 -28 49 C-27.34 49 -26.68 49 -26 49 C-25.7525 48.175 -25.505 47.35 -25.25 46.5 C-23.8100132 42.46803697 -21.96181785 38.79661152 -20 35 C-19.24795432 33.50102459 -18.49787761 32.00105932 -17.75 30.5 C-17.1725 29.345 -16.595 28.19 -16 27 C-15.34 27 -14.68 27 -14 27 C-13.80664062 26.33613281 -13.61328125 25.67226563 -13.4140625 24.98828125 C-10.82776801 16.21792619 -10.82776801 16.21792619 -9 12 C-8.34 12 -7.68 12 -7 12 C-6.71125 11.113125 -6.4225 10.22625 -6.125 9.3125 C-2.96226415 0 -2.96226415 0 0 0 Z " fill="#f4e157" transform="translate(176,268)"/>
<path d="M0 0 C2.16874252 0.50603992 3.99967627 0.99983813 6 2 C5.67 3.32 5.34 4.64 5 6 C5 5.34 5 4.68 5 4 C4.34 4.33 3.68 4.66 3 5 C3 5.66 3 6.32 3 7 C2.319375 7.61875 2.319375 7.61875 1.625 8.25 C-0.55953423 10.60257533 -1.08315037 12.94383456 -2 16 C-3.61538462 20.63076923 -3.61538462 20.63076923 -5.5625 22.5 C-7.5031349 24.52501033 -7.49070581 26.26254372 -8 29 C-8.9479589 31.02518491 -9.95191959 33.02477154 -11 35 C-11.474375 35.969375 -11.94875 36.93875 -12.4375 37.9375 C-14.63073088 42.23623253 -17.00378052 46.40604884 -19.5625 50.5 C-20.95691089 52.92506242 -22.04336336 55.38736081 -23.11328125 57.96875 C-25.22116278 62.7973773 -27.70474026 67.46018465 -30.09765625 72.15234375 C-31.06664491 74.05748031 -31.06664491 74.05748031 -31.875 76.375 C-34.04496505 81.43825178 -37.14826995 85.14826995 -41 89 C-42.69640001 94.08920004 -43.18029072 99.49538308 -40.84765625 104.4453125 C-39.92495268 105.95333218 -38.99172518 107.45497534 -38.046875 108.94921875 C-37 111 -37 111 -37.1875 114.5625 C-37.455625 115.366875 -37.72375 116.17125 -38 117 C-37.34 117 -36.68 117 -36 117 C-36 118.65 -36 120.3 -36 122 C-38.66648371 118.66894651 -40.6669681 115.12802152 -42.6875 111.375 C-43.62142578 109.65410156 -43.62142578 109.65410156 -44.57421875 107.8984375 C-46 105 -46 105 -46 103 C-46.99 102.67 -47.98 102.34 -49 102 C-49 100.35 -49 98.7 -49 97 C-48.34 97 -47.68 97 -47 97 C-46.80664062 96.39671875 -46.61328125 95.7934375 -46.4140625 95.171875 C-46.15367187 94.37265625 -45.89328125 93.5734375 -45.625 92.75 C-45.24214844 91.56664062 -45.24214844 91.56664062 -44.8515625 90.359375 C-44.04826333 88.13372042 -43.10288338 86.09068328 -42 84 C-41.34 84 -40.68 84 -40 84 C-39.896875 83.4225 -39.79375 82.845 -39.6875 82.25 C-39 80 -39 80 -37.6484375 78.23046875 C-35.72847666 75.63260705 -34.36564347 72.95896489 -32.9375 70.0625 C-32.43089844 69.04285156 -31.92429688 68.02320312 -31.40234375 66.97265625 C-29.00658854 61.89418908 -27.65997008 57.60974565 -27 52 C-26.34 52 -25.68 52 -25 52 C-24.85498047 51.21882813 -24.85498047 51.21882813 -24.70703125 50.421875 C-23.75648787 47.16587005 -22.23105549 44.25479337 -20.6875 41.25 C-20.37135742 40.62456299 -20.05521484 39.99912598 -19.72949219 39.35473633 C-18.42089143 36.76806883 -17.09899033 34.18898155 -15.75390625 31.62109375 C-13.2999523 26.89460656 -11.5558019 22.09171533 -10 17 C-9.34 17 -8.68 17 -8 17 C-7.7525 16.154375 -7.505 15.30875 -7.25 14.4375 C-5.86026373 10.61572526 -4.08879162 7.48131937 -2 4 C-1.34 4 -0.68 4 0 4 C0 2.68 0 1.36 0 0 Z " fill="#f4e157" transform="translate(279,52)"/>
<path d="M0 0 C5.65667435 -0.02942592 11.30966819 0.04637589 16.96543884 0.13969803 C18.73046626 0.16410197 20.49550158 0.18793962 22.26054382 0.21124649 C26.83064528 0.27306888 31.40060048 0.34240444 35.9705658 0.41350174 C40.6641035 0.4851259 45.35774216 0.54937295 50.05137634 0.6143074 C59.20513317 0.74199976 68.35875215 0.8776581 77.51231384 1.01860428 C78.3760728 2.63852593 79.22807238 4.26472289 80.07481384 5.89360428 C80.55047791 6.79852615 81.02614197 7.70344803 81.51622009 8.63579178 C81.84493103 9.4221199 82.17364197 10.20844803 82.51231384 11.01860428 C82.18231384 11.67860428 81.85231384 12.33860428 81.51231384 13.01860428 C80.85231384 13.01860428 80.19231384 13.01860428 79.51231384 13.01860428 C79.45043884 12.25547928 79.38856384 11.49235428 79.32481384 10.70610428 C78.74296122 7.78808618 78.74296122 7.78808618 75.94981384 6.20610428 C75.14543884 5.81422928 74.34106384 5.42235428 73.51231384 5.01860428 C73.18231384 6.33860428 72.85231384 7.65860428 72.51231384 9.01860428 C72.51231384 8.02860428 72.51231384 7.03860428 72.51231384 6.01860428 C60.56888234 5.92602645 48.62553585 5.85490134 36.68181896 5.81135559 C31.1361749 5.79045842 25.59077585 5.76210173 20.04527283 5.71684647 C14.69605404 5.67346496 9.34707129 5.64948323 3.9976902 5.63909531 C1.95426529 5.63169011 -0.08914635 5.6172299 -2.13247108 5.59568405 C-4.9891998 5.56675246 -7.84494644 5.56264399 -10.70179749 5.56450272 C-11.5512796 5.55012161 -12.40076172 5.53574051 -13.27598572 5.52092361 C-17.80395475 5.48896704 -17.80395475 5.48896704 -21.46258545 7.87511063 C-22.58576234 10.22368235 -23.60332532 12.56960503 -24.48768616 15.01860428 C-25.47768616 15.01860428 -26.46768616 15.01860428 -27.48768616 15.01860428 C-27.426815 13.62161114 -27.33779731 12.22583468 -27.23768616 10.83110428 C-27.19127991 10.05379959 -27.14487366 9.2764949 -27.09706116 8.47563553 C-26.23942739 5.0176122 -25.08635276 3.48473229 -22.48768616 1.01860428 C-19.48961744 0.22720831 -16.54238699 0.22105653 -13.45350647 0.19853592 C-12.56649677 0.17404153 -11.67948708 0.14954714 -10.7655983 0.12431049 C-7.17706636 0.03893146 -3.5893105 0.02684283 0 0 Z " fill="#f4e157" transform="translate(205.48768615722656,46.98139572143555)"/>
<path d="M0 0 C0.33 0.99 0.66 1.98 1 3 C1.66 3 2.32 3 3 3 C6.71171171 10.26126126 6.71171171 10.26126126 8 13.5625 C9.11446525 16.27900905 10.57805105 18.71393568 12.0546875 21.24609375 C14.50898036 25.79971977 15.6110799 31.03957108 17 36 C17.66 36 18.32 36 19 36 C21.59711242 41.00263458 24.05213418 45.97979796 26.0625 51.25 C27.23366227 54.30168706 28.30980742 56.45143367 30.1875 59.1875 C32 62 32 62 33 69 C-30.69 69 -94.38 69 -160 69 C-160 68.67 -160 68.34 -160 68 C-96.97 68 -33.94 68 31 68 C31 66.68 31 65.36 31 64 C29.35 64 27.7 64 26 64 C26.2475 63.34 26.495 62.68 26.75 62 C27.22212677 56.33447879 23.53798342 51.2455801 20 47 C19.01 47.495 19.01 47.495 18 48 C17.04975021 44.30458414 17.04975021 41.69541586 18 38 C17.34 38 16.68 38 16 38 C15.566875 36.5459375 15.566875 36.5459375 15.125 35.0625 C14.35785318 31.89335797 14.35785318 31.89335797 12 31 C12 29.68 12 28.36 12 27 C11.34 27 10.68 27 10 27 C10 25.02 10 23.04 10 21 C9.34 21 8.68 21 8 21 C7.7525 20.278125 7.505 19.55625 7.25 18.8125 C6.10373149 15.91295144 6.10373149 15.91295144 4 13.5 C0.46046147 9.07557684 -0.26138534 5.61978477 0 0 Z " fill="#f4e157" transform="translate(296,280)"/>
<path d="M0 0 C32.01 0 64.02 0 97 0 C97.495 1.485 97.495 1.485 98 3 C98.66 3 99.32 3 100 3 C100.83819158 4.62249941 101.6704116 6.24808497 102.5 7.875 C103.19609375 9.23238281 103.19609375 9.23238281 103.90625 10.6171875 C105 13 105 13 105 15 C104.01 14.67 103.02 14.34 102 14 C102 13.01 102 12.02 102 11 C101.34 11 100.68 11 100 11 C99.01 8.03 98.02 5.06 97 2 C96.34 2.33 95.68 2.66 95 3 C81.39322235 4.232002 67.85217282 3.9364131 54.21826172 3.40893555 C42.3109433 2.96607427 30.41476957 2.91250407 18.5 2.9375 C17.57408051 2.9393631 16.64816101 2.9412262 15.69418335 2.94314575 C10.46274889 2.95520552 5.23138547 2.9745021 0 3 C0 2.01 0 1.02 0 0 Z M-2 3 C-1.34 3 -0.68 3 0 3 C-0.375 4.9375 -0.375 4.9375 -1 7 C-1.99 7.495 -1.99 7.495 -3 8 C-2.67 6.35 -2.34 4.7 -2 3 Z " fill="#f4e157" transform="translate(183,249)"/>
<path d="M0 0 C2.3278045 3.49170675 4.25482643 7.09218771 6.1875 10.8125 C6.56841797 11.51181641 6.94933594 12.21113281 7.34179688 12.93164062 C9.04979932 16.24535136 10.01671042 18.3602295 9.91796875 22.140625 C8.91029952 25.27940744 7.66316935 28.01939403 6.125 30.9375 C5.48592009 32.1706542 4.84938807 33.4051308 4.21484375 34.640625 C3.86276855 35.32576172 3.51069336 36.01089844 3.14794922 36.71679688 C0.91074607 41.16646166 -1.18517202 45.68458743 -3.3125 50.1875 C-8.25953672 60.61354989 -13.5336426 70.83802974 -19 81 C-19.33 81 -19.66 81 -20 81 C-20.25 73.375 -20.25 73.375 -18 70 C-17.505 69.505 -17.505 69.505 -17 69 C-16.01 69 -15.02 69 -14 69 C-14.04125 67.88625 -14.0825 66.7725 -14.125 65.625 C-14 62 -14 62 -12 60 C-11.855625 59.05125 -11.71125 58.1025 -11.5625 57.125 C-10.9728732 53.84929557 -10.33549148 52.33549148 -8 50 C-7.01 50 -6.02 50 -5 50 C-5 49.34 -5 48.68 -5 48 C-5.66 47.67 -6.32 47.34 -7 47 C-6.41022253 45.1827669 -5.80271547 43.37127957 -5.1875 41.5625 C-4.85105469 40.55316406 -4.51460938 39.54382813 -4.16796875 38.50390625 C-3.78253906 37.67761719 -3.39710938 36.85132813 -3 36 C-1.515 35.505 -1.515 35.505 0 35 C0.39044206 33.68225804 0.70955086 32.34332728 1 31 C3.62025316 25.18987342 3.62025316 25.18987342 6 24 C6.16687448 21.58354218 6.16687448 21.58354218 6 19 C5.34 18.34 4.68 17.68 4 17 C4 15.68 4 14.36 4 13 C3.34 12.67 2.68 12.34 2 12 C0.27281084 7.87393702 -0.2120464 4.45297431 0 0 Z " fill="#f4e157" transform="translate(372,229)"/>
<path d="M0 0 C3.01533006 0.60306601 4.62858057 1.47425117 6.41015625 3.99609375 C9.72929859 9.88926484 9.72929859 9.88926484 10.4921875 13.01953125 C11.10180556 15.3970417 12.13510616 17.19716596 13.375 19.3125 C14.97094644 22.10082021 16.41856516 24.83491613 17.625 27.8125 C18.81789561 30.91973154 18.81789561 30.91973154 20.5 33 C22.14652807 35.19537076 23.07873019 37.46162867 24.13476562 39.98046875 C25.65682649 43.53308936 27.33951625 47.01048715 29 50.5 C36.07263294 65.36316472 36.07263294 65.36316472 37 70 C37.66 70 38.32 70 39 70 C40.31626692 73.61973402 41 76.09567131 41 80 C41.66 80 42.32 80 43 80 C46.75076616 83.87175862 48.35444043 87.98995238 50 93 C50.33 93.99 50.66 94.98 51 96 C51.99 96 52.98 96 54 96 C53.505 97.98 53.505 97.98 53 100 C51.68 100 50.36 100 49 100 C48.62875 98.906875 48.2575 97.81375 47.875 96.6875 C46.54038008 93.09673689 44.87274048 89.84018637 43 86.5 C40.52221201 82.06574079 38.62952098 77.80708688 37 73 C36.4121875 71.2675 36.4121875 71.2675 35.8125 69.5 C35.544375 68.675 35.27625 67.85 35 67 C34.34 67 33.68 67 33 67 C31.55573176 63.65537882 30.12574073 60.3103977 28.7578125 56.93359375 C28.32210938 55.86238281 27.88640625 54.79117188 27.4375 53.6875 C27.02371094 52.66011719 26.60992187 51.63273437 26.18359375 50.57421875 C25.13697819 47.90560464 25.13697819 47.90560464 23 46 C21.13011787 42.03584988 19.65783106 38.34168501 19 34 C18.34 34 17.68 34 17 34 C17 33.01 17 32.02 17 31 C16.34 31 15.68 31 15 31 C14.72027344 30.29617188 14.44054687 29.59234375 14.15234375 28.8671875 C11.22334221 21.65299078 7.93133771 14.74369289 4.35546875 7.8359375 C3 5 3 5 3 3 C2.34 3 1.68 3 1 3 C0.67 2.01 0.34 1.02 0 0 Z " fill="#f4e157" transform="translate(280,249)"/>
<path d="M0 0 C0.33 0.99 0.66 1.98 1 3 C1.66 3 2.32 3 3 3 C6.71171171 10.26126126 6.71171171 10.26126126 8 13.5625 C9.11446525 16.27900905 10.57805105 18.71393568 12.0546875 21.24609375 C14.50898036 25.79971977 15.6110799 31.03957108 17 36 C17.66 36 18.32 36 19 36 C21.59711242 41.00263458 24.05213418 45.97979796 26.0625 51.25 C27.2473374 54.34508544 28.33137764 56.47865658 30.25 59.25 C32.28371671 62.44584054 32.35399845 64.28301625 32 68 C31.67 66.68 31.34 65.36 31 64 C29.35 64 27.7 64 26 64 C26.2475 63.34 26.495 62.68 26.75 62 C27.22212677 56.33447879 23.53798342 51.2455801 20 47 C19.01 47.495 19.01 47.495 18 48 C17.04975021 44.30458414 17.04975021 41.69541586 18 38 C17.34 38 16.68 38 16 38 C15.71125 37.030625 15.4225 36.06125 15.125 35.0625 C14.35785318 31.89335797 14.35785318 31.89335797 12 31 C12 29.68 12 28.36 12 27 C11.34 27 10.68 27 10 27 C10 25.02 10 23.04 10 21 C9.34 21 8.68 21 8 21 C7.7525 20.278125 7.505 19.55625 7.25 18.8125 C6.10373149 15.91295144 6.10373149 15.91295144 4 13.5 C0.46046147 9.07557684 -0.26138534 5.61978477 0 0 Z " fill="#f4e157" transform="translate(296,280)"/>
<path d="M0 0 C2.16874252 0.50603992 3.99967627 0.99983813 6 2 C5.67 3.32 5.34 4.64 5 6 C5 5.34 5 4.68 5 4 C4.01 4.495 4.01 4.495 3 5 C3 5.66 3 6.32 3 7 C2 8 1 9 0 10 C-1.01351664 11.65848177 -2.01120795 13.32665961 -3 15 C-3.78375 16.051875 -4.5675 17.10375 -5.375 18.1875 C-8.50484256 22.48746607 -10.73277564 27.20506166 -13 32 C-13.66 32 -14.32 32 -15 32 C-15.10570312 32.87785156 -15.21140625 33.75570312 -15.3203125 34.66015625 C-16.02409272 38.11838666 -17.10533089 40.40441041 -18.875 43.4375 C-21.2153853 47.55567798 -23.24207677 51.60519192 -25 56 C-25.66 56 -26.32 56 -27 56 C-27 54.68 -27 53.36 -27 52 C-26.34 52 -25.68 52 -25 52 C-24.85498047 51.21882813 -24.85498047 51.21882813 -24.70703125 50.421875 C-23.75648787 47.16587005 -22.23105549 44.25479337 -20.6875 41.25 C-20.37135742 40.62456299 -20.05521484 39.99912598 -19.72949219 39.35473633 C-18.42089143 36.76806883 -17.09899033 34.18898155 -15.75390625 31.62109375 C-13.2999523 26.89460656 -11.5558019 22.09171533 -10 17 C-9.34 17 -8.68 17 -8 17 C-7.7525 16.154375 -7.505 15.30875 -7.25 14.4375 C-5.86026373 10.61572526 -4.08879162 7.48131937 -2 4 C-1.34 4 -0.68 4 0 4 C0 2.68 0 1.36 0 0 Z " fill="#f4e157" transform="translate(279,52)"/>
<path d="M0 0 C1.76502741 0.02440394 3.53006274 0.04824159 5.29510498 0.07154846 C9.86520644 0.13337085 14.43516164 0.20270641 19.00512695 0.27380371 C23.69866466 0.34542788 28.39230332 0.40967492 33.0859375 0.47460938 C42.23969433 0.60230173 51.3933133 0.73796007 60.546875 0.87890625 C61.41063396 2.4988279 62.26263354 4.12502486 63.109375 5.75390625 C63.58503906 6.65882812 64.06070313 7.56375 64.55078125 8.49609375 C64.87949219 9.28242187 65.20820313 10.06875 65.546875 10.87890625 C65.216875 11.53890625 64.886875 12.19890625 64.546875 12.87890625 C63.886875 12.87890625 63.226875 12.87890625 62.546875 12.87890625 C62.423125 12.13640625 62.299375 11.39390625 62.171875 10.62890625 C61.5890374 8.06442083 60.76023051 6.18724113 59.546875 3.87890625 C38.1996319 3.06616964 16.861333 2.62072406 -4.49884033 2.34667969 C-8.46279848 2.29516059 -12.42670872 2.24017705 -16.390625 2.18554688 C-24.07808374 2.08007905 -31.76558409 1.97822585 -39.453125 1.87890625 C-39.453125 1.54890625 -39.453125 1.21890625 -39.453125 0.87890625 C-26.27412783 0.08266382 -13.19918647 -0.21779107 0 0 Z " fill="#f4e157" transform="translate(222.453125,47.12109375)"/>
<path d="M0 0 C31.35 0 62.7 0 95 0 C95.495 1.485 95.495 1.485 96 3 C96.66 3 97.32 3 98 3 C98.83819158 4.62249941 99.6704116 6.24808497 100.5 7.875 C101.19609375 9.23238281 101.19609375 9.23238281 101.90625 10.6171875 C103 13 103 13 103 15 C102.01 14.67 101.02 14.34 100 14 C100 13.01 100 12.02 100 11 C99.34 11 98.68 11 98 11 C97.01 8.03 96.02 5.06 95 2 C94.36054443 2.00523682 93.72108887 2.01047363 93.06225586 2.01586914 C71.87075578 2.15941098 50.68791401 1.84909581 29.5 1.5 C28.41107515 1.48206327 28.41107515 1.48206327 27.30015182 1.46376419 C18.20002735 1.31346827 9.09998137 1.15873544 0 1 C0 0.67 0 0.34 0 0 Z " fill="#f4e157" transform="translate(185,249)"/>
<path d="M0 0 C1.1015625 1.734375 1.1015625 1.734375 2 4 C1.4609375 6.078125 1.4609375 6.078125 0.375 8.25 C-0.0065625 9.02988281 -0.388125 9.80976562 -0.78125 10.61328125 C-1.1834375 11.40089844 -1.585625 12.18851563 -2 13 C-2.3609375 13.75667969 -2.721875 14.51335937 -3.09375 15.29296875 C-5.68815789 20.68815789 -5.68815789 20.68815789 -8 23 C-8.4853278 25.00602157 -8.96924014 27.01245731 -9.43359375 29.0234375 C-10.14697643 31.51289706 -11.1712931 33.1712931 -13 35 C-13.66 35 -14.32 35 -15 35 C-15.2475 35.7425 -15.495 36.485 -15.75 37.25 C-17.09147301 40.20124062 -18.60905526 41.84814974 -21 44 C-19.59570429 38.20632099 -17.28971447 33.40320984 -14.4375 28.1875 C-13.54133123 26.51910772 -12.64684378 24.8498114 -11.75390625 23.1796875 C-11.07158936 21.90496582 -11.07158936 21.90496582 -10.37548828 20.60449219 C-8.141331 16.37410705 -6.0042554 12.09641547 -3.875 7.8125 C-3.48497803 7.02834717 -3.09495605 6.24419434 -2.69311523 5.4362793 C-1.79371392 3.6250275 -0.89657966 1.81265019 0 0 Z " fill="#f4e157" transform="translate(153,108)"/>
<path d="M0 0 C1.06347656 0.04833984 2.12695312 0.09667969 3.22265625 0.14648438 C4.31707031 0.20255859 5.41148437 0.25863281 6.5390625 0.31640625 C8.21548828 0.3947168 8.21548828 0.3947168 9.92578125 0.47460938 C12.67219742 0.60371441 15.41819672 0.73865529 18.1640625 0.87890625 C18.1640625 1.20890625 18.1640625 1.53890625 18.1640625 1.87890625 C5.2940625 2.86890625 5.2940625 2.86890625 -7.8359375 3.87890625 C-7.1759375 4.53890625 -6.5159375 5.19890625 -5.8359375 5.87890625 C-5.27523934 7.46287856 -4.78277345 9.07162592 -4.3359375 10.69140625 C-3.54408649 13.49924529 -2.75119811 16.07380684 -1.5859375 18.75390625 C-0.69741558 21.27138503 -1.10203377 22.37314924 -1.8359375 24.87890625 C-3.32859292 22.19815742 -4.80500703 19.51038567 -6.2734375 16.81640625 C-6.69431641 16.06423828 -7.11519531 15.31207031 -7.54882812 14.53710938 C-10.06065685 9.8952499 -11.45059861 6.15454595 -11.8359375 0.87890625 C-7.7885129 0.09934393 -4.11388101 -0.19905876 0 0 Z " fill="#f4e157" transform="translate(345.8359375,358.12109375)"/>
<path d="M0 0 C0.33 0 0.66 0 1 0 C1 1.65 1 3.3 1 5 C0.01 5 -0.98 5 -2 5 C-2 5.66 -2 6.32 -2 7 C-1.01 7.33 -0.02 7.66 1 8 C0.360625 8.28875 -0.27875 8.5775 -0.9375 8.875 C-3.15206079 9.82823451 -3.15206079 9.82823451 -4 12 C-4.66 12 -5.32 12 -6 12 C-4.75015537 18.84755305 -3.21657998 24.79659575 0 31 C-0.99 31.66 -1.98 32.32 -3 33 C-10.01491742 20.47336175 -10.01491742 20.47336175 -9.609375 15.15625 C-8.18582981 10.11909009 -5.54546281 5.54546931 -3 1 C-2.67 1.66 -2.34 2.32 -2 3 C-1.34 3 -0.68 3 0 3 C0 2.01 0 1.02 0 0 Z " fill="#f4e157" transform="translate(44,334)"/>
<path d="M0 0 C10.89 0 21.78 0 33 0 C33.495 0.99 33.495 0.99 34 2 C33.07662842 2.0093457 32.15325684 2.01869141 31.2019043 2.02832031 C27.77405494 2.07234734 24.34745949 2.13396107 20.92016602 2.20751953 C19.43721058 2.23573541 17.95410457 2.25694702 16.47094727 2.27099609 C14.33792003 2.2924192 12.20670394 2.33905782 10.07421875 2.390625 C8.79119873 2.41157227 7.50817871 2.43251953 6.1862793 2.45410156 C2.94740062 2.69351022 2.94740062 2.69351022 1.13208008 4.86621094 C-0.10186783 7.1920045 -1.10594727 9.52416167 -2 12 C-2.99 12 -3.98 12 -5 12 C-4.53981898 7.85837086 -4.14493915 5.75182176 -1 3 C-0.67 2.01 -0.34 1.02 0 0 Z " fill="#f4e157" transform="translate(183,50)"/>
<path d="M0 0 C1.23910126 0.00444122 2.47820251 0.00888245 3.75485229 0.01345825 C4.43789429 0.0131662 5.12093628 0.01287415 5.82467651 0.01257324 C8.08652367 0.01396864 10.34804302 0.02953936 12.60983276 0.04519653 C14.17638977 0.04892593 15.74294911 0.05177325 17.30950928 0.05377197 C21.43596824 0.06141427 25.56228677 0.0810678 29.68869019 0.10317993 C33.89806214 0.12362557 38.10745674 0.13277094 42.31686401 0.14285278 C50.57864726 0.1643132 58.8403163 0.19845625 67.10202026 0.24050903 C67.10202026 0.57050903 67.10202026 0.90050903 67.10202026 1.24050903 C64.10225057 1.41262697 61.10232585 1.5782118 58.10202026 1.74050903 C57.28217651 1.78820435 56.46233276 1.83589966 55.61764526 1.88504028 C41.61262581 2.62773071 27.60807398 2.20498756 13.60202026 1.74050903 C12.08510056 1.69210016 10.56817347 1.64392217 9.05123901 1.59597778 C5.40141094 1.48013285 1.75169095 1.36122298 -1.89797974 1.24050903 C-2.22797974 2.56050903 -2.55797974 3.88050903 -2.89797974 5.24050903 C-3.55797974 5.24050903 -4.21797974 5.24050903 -4.89797974 5.24050903 C-5.22797974 5.90050903 -5.55797974 6.56050903 -5.89797974 7.24050903 C-4.81787487 0.3998449 -4.81787487 0.3998449 0 0 Z " fill="#f4e157" transform="translate(184.89797973632813,48.759490966796875)"/>
<path d="M0 0 C10.89 0 21.78 0 33 0 C35 4 35 4 34.30908203 6.19824219 C33.66495361 7.36081543 33.66495361 7.36081543 33.0078125 8.546875 C32.55019531 9.39121094 32.09257812 10.23554688 31.62109375 11.10546875 C31.12738281 11.97816406 30.63367188 12.85085938 30.125 13.75 C29.63902344 14.63816406 29.15304687 15.52632813 28.65234375 16.44140625 C27.44892753 18.63587112 26.23126339 20.82107527 25 23 C24.67 23 24.34 23 24 23 C23.3356089 17.68487117 24.95365626 15.12134913 27.8203125 10.90234375 C29.21780218 8.64877596 29.75313705 6.63320476 30 4 C29.34 3.67 28.68 3.34 28 3 C28 2.34 28 1.68 28 1 C18.76 1 9.52 1 0 1 C0 0.67 0 0.34 0 0 Z " fill="#f4e157" transform="translate(440,300)"/>
<path d="M0 0 C0.99 0 1.98 0 3 0 C0.707015 7.95800678 -2.94899487 14.81917721 -7 22 C-8.890625 21.78515625 -8.890625 21.78515625 -11 21 C-12.046875 18.93359375 -12.046875 18.93359375 -12.75 16.4375 C-13.11351562 15.19806641 -13.11351562 15.19806641 -13.484375 13.93359375 C-13.65453125 13.29550781 -13.8246875 12.65742188 -14 12 C-13.34 11.67 -12.68 11.34 -12 11 C-10.35 12.65 -8.7 14.3 -7 16 C-6.67 15.34 -6.34 14.68 -6 14 C-5.34 14 -4.68 14 -4 14 C-4.061875 12.88625 -4.061875 12.88625 -4.125 11.75 C-3.99601866 8.91241048 -3.42948778 7.41226062 -2 5 C-1.34 5 -0.68 5 0 5 C0 3.35 0 1.7 0 0 Z " fill="#f4e157" transform="translate(389,431)"/>
<path d="M0 0 C0.99 1.32 1.98 2.64 3 4 C2.525625 4.391875 2.05125 4.78375 1.5625 5.1875 C-0.35179633 7.40808374 -0.61266988 9.13375709 -1 12 C-0.34 12.33 0.32 12.66 1 13 C0.01 13.33 -0.98 13.66 -2 14 C-3.22445284 15.62948064 -3.22445284 15.62948064 -4.1875 17.5625 C-4.785625 18.696875 -5.38375 19.83125 -6 21 C-6.66 21 -7.32 21 -8 21 C-8 21.66 -8 22.32 -8 23 C-8.66 23 -9.32 23 -10 23 C-10 24.32 -10 25.64 -10 27 C-10.99 27.33 -11.98 27.66 -13 28 C-11.58656224 21.95856319 -9.03685803 17.09825573 -5.9375 11.75 C-5.0277473 10.16271759 -4.12010134 8.57422534 -3.21484375 6.984375 C-2.81386475 6.29053711 -2.41288574 5.59669922 -1.99975586 4.88183594 C-0.86503692 2.87148825 -0.86503692 2.87148825 0 0 Z " fill="#f4e157" transform="translate(167,80)"/>
<path d="M0 0 C0.66 0.33 1.32 0.66 2 1 C0.36704731 5.64763458 0.36704731 5.64763458 -1.5625 7.5 C-3.5031349 9.52501033 -3.49070581 11.26254372 -4 14 C-4.9479589 16.02518491 -5.95191959 18.02477154 -7 20 C-7.495 21.051875 -7.99 22.10375 -8.5 23.1875 C-9.83779258 25.69586108 -10.9737238 27.09192324 -13 29 C-12.85831863 27.56208484 -12.71148957 26.1246763 -12.5625 24.6875 C-12.48128906 23.88699219 -12.40007812 23.08648437 -12.31640625 22.26171875 C-12 20 -12 20 -11 17 C-10.34 17 -9.68 17 -9 17 C-8.731875 16.29875 -8.46375 15.5975 -8.1875 14.875 C-5.97120161 9.50922496 -3.28662441 4.7599388 0 0 Z " fill="#f4e157" transform="translate(275,67)"/>
<path d="M0 0 C2.3278045 3.49170675 4.25482643 7.09218771 6.1875 10.8125 C6.56841797 11.51181641 6.94933594 12.21113281 7.34179688 12.93164062 C9.07142272 16.28730311 10.01979599 18.37490364 9.8984375 22.20703125 C8.99740549 25.00806554 7.93289544 27.34433079 6.4375 29.875 C5.98246094 30.65617187 5.52742188 31.43734375 5.05859375 32.2421875 C4.53458984 33.11230469 4.53458984 33.11230469 4 34 C3.67 32.68 3.34 31.36 3 30 C3.66 30 4.32 30 5 30 C4.979375 29.195625 4.95875 28.39125 4.9375 27.5625 C5 25 5 25 6 24 C6.2500773 21.54190002 6.2500773 21.54190002 6 19 C5.34 18.34 4.68 17.68 4 17 C4 15.68 4 14.36 4 13 C3.34 12.67 2.68 12.34 2 12 C0.27281084 7.87393702 -0.2120464 4.45297431 0 0 Z " fill="#f4e157" transform="translate(372,229)"/>
<path d="M0 0 C0.1875 2.3125 0.1875 2.3125 0 5 C-1 6 -2 7 -3 8 C-3.7269226 11.10839021 -3.7269226 11.10839021 -4 14 C-4.66 14 -5.32 14 -6 14 C-8.64 19.28 -11.28 24.56 -14 30 C-15.31217376 26.06347872 -14.11249309 23.60115514 -12.75 19.875 C-12.53214844 19.22917969 -12.31429687 18.58335937 -12.08984375 17.91796875 C-11.421875 16.0546875 -11.421875 16.0546875 -10 13 C-9.01 12.67 -8.02 12.34 -7 12 C-5.87050779 9.19623648 -5.87050779 9.19623648 -5 6 C-2.86666667 0 -2.86666667 0 0 0 Z " fill="#f4e157" transform="translate(176,268)"/>
<path d="M0 0 C0.33 0.66 0.66 1.32 1 2 C0.16723633 4.16723633 0.16723633 4.16723633 -1.16796875 6.83203125 C-1.89016602 8.27739258 -1.89016602 8.27739258 -2.62695312 9.75195312 C-3.39942383 11.26692383 -3.39942383 11.26692383 -4.1875 12.8125 C-4.68314453 13.81087891 -5.17878906 14.80925781 -5.68945312 15.83789062 C-8.09162547 20.60098269 -10.38269467 25.02010082 -14 29 C-14.25 21.375 -14.25 21.375 -12 18 C-11.67 17.67 -11.34 17.34 -11 17 C-10.01 17 -9.02 17 -8 17 C-8.12375 15.39125 -8.12375 15.39125 -8.25 13.75 C-7.95550203 9.3325305 -7.13688793 8.8517163 -4 6 C-3.20318682 3.35815459 -3.20318682 3.35815459 -3 1 C-2.01 0.67 -1.02 0.34 0 0 Z " fill="#f4e157" transform="translate(366,281)"/>
<path d="M0 0 C0.33 0 0.66 0 1 0 C1.2475 1.175625 1.495 2.35125 1.75 3.5625 C2.49442592 6.64344524 3.46957235 8.96785931 5.1875 11.625 C7.2339785 15.4356841 7.19108729 16.93045174 6 21 C6.66 21 7.32 21 8 21 C8 22.65 8 24.3 8 26 C4.9492695 22.3024374 2.89554369 18.19410542 0.75 13.9375 C0.37359375 13.21755859 -0.0028125 12.49761719 -0.390625 11.75585938 C-1.34038605 9.87554201 -2.17845147 7.93976737 -3 6 C-2.67 5.01 -2.34 4.02 -2 3 C-1.34 3 -0.68 3 0 3 C0 2.01 0 1.02 0 0 Z " fill="#f4e157" transform="translate(235,148)"/>
<path d="M0 0 C0.66 0 1.32 0 2 0 C2 0.99 2 1.98 2 3 C2.928125 3.4021875 2.928125 3.4021875 3.875 3.8125 C6 5 6 5 8 8 C6.68 8 5.36 8 4 8 C3.566875 9.2065625 3.566875 9.2065625 3.125 10.4375 C2 13 2 13 0 14 C0.99 11.03 1.98 8.06 3 5 C-16.305 4.505 -16.305 4.505 -36 4 C-36 3.67 -36 3.34 -36 3 C-24.12 3 -12.24 3 0 3 C0 2.01 0 1.02 0 0 Z " fill="#f4e157" transform="translate(449,328)"/>
<path d="M0 0 C0.33 1.32 0.66 2.64 1 4 C0.34 4 -0.32 4 -1 4 C-1.10957031 4.60328125 -1.21914062 5.2065625 -1.33203125 5.828125 C-2.90685413 13.76625659 -2.90685413 13.76625659 -6 17 C-5.34 17 -4.68 17 -4 17 C-4 18.32 -4 19.64 -4 21 C-6.375 23.0625 -6.375 23.0625 -9 25 C-9.66 25.99 -10.32 26.98 -11 28 C-11.99 28.33 -12.98 28.66 -14 29 C-12.47101753 23.77666529 -10.14819701 19.25367238 -7.5625 14.5 C-6.77151632 13.03158332 -5.98114023 11.56283917 -5.19140625 10.09375 C-4.81773926 9.40023437 -4.44407227 8.70671875 -4.05908203 7.9921875 C-2.65589228 5.35271577 -1.31977691 2.68199039 0 0 Z " fill="#f4e157" transform="translate(102,211)"/>
<path d="M0 0 C0.66 0 1.32 0 2 0 C-0.33777388 8.47443032 -4.5173816 15.5147726 -9 23 C-10.3340394 18.99788181 -9.40012984 16.92036356 -8 13 C-6.375 11.0625 -6.375 11.0625 -5 10 C-5.33 9.01 -5.66 8.02 -6 7 C-4.75 4.8125 -4.75 4.8125 -3 3 C-2.01 3 -1.02 3 0 3 C0 2.01 0 1.02 0 0 Z " fill="#f4e157" transform="translate(350,310)"/>
<path d="M0 0 C0.33 1.32 0.66 2.64 1 4 C0.01 4.66 -0.98 5.32 -2 6 C-3.43156953 9.22228712 -3.43156953 9.22228712 -4.625 12.9375 C-5.26308594 14.80728516 -5.26308594 14.80728516 -5.9140625 16.71484375 C-6.27242187 17.79894531 -6.63078125 18.88304687 -7 20 C-8.12312966 23.36938898 -9.53174093 24.53174093 -12 27 C-13 26 -13 26 -13.0625 23.4375 C-13.041875 22.633125 -13.02125 21.82875 -13 21 C-12.34 21 -11.68 21 -11 21 C-10.80664062 20.39671875 -10.61328125 19.7934375 -10.4140625 19.171875 C-10.15367187 18.37265625 -9.89328125 17.5734375 -9.625 16.75 C-9.24214844 15.56664062 -9.24214844 15.56664062 -8.8515625 14.359375 C-8.04826333 12.13372042 -7.10288338 10.09068328 -6 8 C-5.34 8 -4.68 8 -4 8 C-3.8453125 7.13375 -3.8453125 7.13375 -3.6875 6.25 C-2.90207202 3.67950842 -1.69495803 2.06342716 0 0 Z " fill="#f4e157" transform="translate(243,128)"/>
<path d="M0 0 C0.33 1.32 0.66 2.64 1 4 C1.99 4 2.98 4 4 4 C4.38671875 4.79664063 4.7734375 5.59328125 5.171875 6.4140625 C8.37637474 13.12824481 8.37637474 13.12824481 12.375 19.375 C14.30075154 22.4858294 14.34233463 24.40548636 14 28 C13.67 26.68 13.34 25.36 13 24 C11.35 24 9.7 24 8 24 C8.2475 23.34 8.495 22.68 8.75 22 C9.22212677 16.33447879 5.53798342 11.2455801 2 7 C1.01 7.495 1.01 7.495 0 8 C-0.79953138 4.71303767 -1.09658936 3.28976808 0 0 Z " fill="#f4e157" transform="translate(314,320)"/>
<path d="M0 0 C0.80083008 0.0407666 1.60166016 0.0815332 2.42675781 0.12353516 C3.74160156 0.18927734 3.74160156 0.18927734 5.08300781 0.25634766 C6.46746094 0.33369141 6.46746094 0.33369141 7.87988281 0.41259766 C9.24113281 0.47833984 9.24113281 0.47833984 10.62988281 0.54541016 C14.90217088 0.77026742 18.94052035 1.12658347 23.12988281 2.03759766 C21.12988281 4.03759766 21.12988281 4.03759766 18.00488281 4.16259766 C17.05613281 4.12134766 16.10738281 4.08009766 15.12988281 4.03759766 C14.79988281 4.69759766 14.46988281 5.35759766 14.12988281 6.03759766 C14.12988281 5.04759766 14.12988281 4.05759766 14.12988281 3.03759766 C12.35913364 3.01054037 10.5882657 2.99117571 8.81738281 2.97509766 C7.83125 2.96349609 6.84511719 2.95189453 5.82910156 2.93994141 C3.03024432 2.91429904 3.03024432 2.91429904 0.12988281 4.03759766 C-0.20011719 5.02759766 -0.53011719 6.01759766 -0.87011719 7.03759766 C-1.53011719 5.05759766 -2.19011719 3.07759766 -2.87011719 1.03759766 C-1.87011719 0.03759766 -1.87011719 0.03759766 0 0 Z " fill="#f4e157" transform="translate(394.8701171875,329.96240234375)"/>
<path d="M0 0 C0.33 0 0.66 0 1 0 C1 3.96 1 7.92 1 12 C0.34 12 -0.32 12 -1 12 C-1.33 12.99 -1.66 13.98 -2 15 C-2.66 14.67 -3.32 14.34 -4 14 C-4.103125 14.639375 -4.20625 15.27875 -4.3125 15.9375 C-4.539375 16.618125 -4.76625 17.29875 -5 18 C-5.99 18.33 -6.98 18.66 -8 19 C-6.60121198 14.53202662 -4.86369228 10.36177921 -2.875 6.125 C-2.33617187 4.97257812 -1.79734375 3.82015625 -1.2421875 2.6328125 C-0.62730469 1.32957031 -0.62730469 1.32957031 0 0 Z " fill="#f4e157" transform="translate(51,313)"/>
<path d="M0 0 C-0.57229633 5.19228855 -3.0982161 9.3103703 -5.5625 13.8125 C-5.98724609 14.60076172 -6.41199219 15.38902344 -6.84960938 16.20117188 C-7.89396554 18.1373378 -8.9442077 20.07005367 -10 22 C-11.24566814 19.50866372 -10.87266789 18.70951551 -10.1875 16.0625 C-10.01605469 15.37285156 -9.84460938 14.68320312 -9.66796875 13.97265625 C-9 12 -9 12 -7 9 C-6.690625 8.01 -6.38125 7.02 -6.0625 6 C-4.87395814 2.64411711 -3.85451489 0 0 0 Z " fill="#f4e157" transform="translate(416,383)"/>
<path d="M0 0 C2.07315082 2.64573533 3.75557002 5.25491797 5.26171875 8.2578125 C5.65810547 9.04800781 6.05449219 9.83820313 6.46289062 10.65234375 C6.86701172 11.46832031 7.27113281 12.28429687 7.6875 13.125 C8.10322266 13.94871094 8.51894531 14.77242187 8.94726562 15.62109375 C9.33978516 16.40871094 9.73230469 17.19632813 10.13671875 18.0078125 C10.49467529 18.72598145 10.85263184 19.44415039 11.22143555 20.18408203 C12 22 12 22 12 24 C10.35 23.67 8.7 23.34 7 23 C6.89042969 22.39671875 6.78085937 21.7934375 6.66796875 21.171875 C6.50941406 20.37265625 6.35085938 19.5734375 6.1875 18.75 C6.03667969 17.96109375 5.88585937 17.1721875 5.73046875 16.359375 C5.1274728 13.93337692 5.1274728 13.93337692 3.5 12.03125 C1.70493496 9.60043276 1.31905336 7.71138886 0.8125 4.75 C0.65394531 3.85796875 0.49539063 2.9659375 0.33203125 2.046875 C0.22246094 1.37140625 0.11289062 0.6959375 0 0 Z " fill="#f4e157" transform="translate(296,77)"/>
<path d="M0 0 C1.06347656 0.04833984 2.12695312 0.09667969 3.22265625 0.14648438 C4.31707031 0.20255859 5.41148437 0.25863281 6.5390625 0.31640625 C8.21548828 0.3947168 8.21548828 0.3947168 9.92578125 0.47460938 C12.67219742 0.60371441 15.41819672 0.73865529 18.1640625 0.87890625 C18.1640625 1.20890625 18.1640625 1.53890625 18.1640625 1.87890625 C8.17727894 3.13567002 -1.79225483 2.9725779 -11.8359375 2.87890625 C-11.8359375 2.21890625 -11.8359375 1.55890625 -11.8359375 0.87890625 C-7.7885129 0.09934393 -4.11388101 -0.19905876 0 0 Z " fill="#f4e157" transform="translate(345.8359375,358.12109375)"/>
<path d="M0 0 C0.33 0 0.66 0 1 0 C1 1.65 1 3.3 1 5 C0.01 5.33 -0.98 5.66 -2 6 C-3.18391223 8.37625345 -3.18391223 8.37625345 -4 11 C-4.33 11.99 -4.66 12.98 -5 14 C-4.34 14.33 -3.68 14.66 -3 15 C-4.32 16.65 -5.64 18.3 -7 20 C-7.99 19.67 -8.98 19.34 -10 19 C-8.51095825 15.10391502 -6.75621287 11.40902982 -4.875 7.6875 C-4.06675781 6.08455078 -4.06675781 6.08455078 -3.2421875 4.44921875 C-2.62730469 3.23685547 -2.62730469 3.23685547 -2 2 C-1.34 2 -0.68 2 0 2 C0 1.34 0 0.68 0 0 Z " fill="#f4e157" transform="translate(90,238)"/>
<path d="M0 0 C4.79942363 1.48345821 4.79942363 1.48345821 7 3 C7.875 6.4375 7.875 6.4375 8 10 C8.165 10.66 8.33 11.32 8.5 12 C9.241301 14.965204 9.59260902 17.97366701 10 21 C7.03569239 17.44283087 5.2278075 13.54949068 3.3125 9.375 C2.99216797 8.694375 2.67183594 8.01375 2.34179688 7.3125 C0 2.25941165 0 2.25941165 0 0 Z " fill="#f4e157" transform="translate(263,214)"/>
<path d="M0 0 C1.1015625 1.734375 1.1015625 1.734375 2 4 C1.4609375 6.078125 1.4609375 6.078125 0.375 8.25 C-0.0065625 9.02859375 -0.388125 9.8071875 -0.78125 10.609375 C-1.38453125 11.79273437 -1.38453125 11.79273437 -2 13 C-2.3609375 13.76828125 -2.721875 14.5365625 -3.09375 15.328125 C-5.72051887 20.86025943 -5.72051887 20.86025943 -8 22 C-6.31444194 14.02443261 -3.98608496 7.12138499 0 0 Z " fill="#f4e157" transform="translate(153,108)"/>
<path d="M0 0 C0 0.99 0 1.98 0 3 C1.65 2.67 3.3 2.34 5 2 C4.50168276 5.68754757 3.89932357 7.60490662 1 10 C-4.57142857 4.85714286 -4.57142857 4.85714286 -5 1 C-3 0 -3 0 0 0 Z " fill="#f4e157" transform="translate(423,383)"/>
<path d="M0 0 C1.3058334 3.92128522 0.38030356 5.97831091 -1.40039062 9.68359375 C-1.74263672 10.36550781 -2.08488281 11.04742187 -2.4375 11.75 C-2.77587891 12.44738281 -3.11425781 13.14476562 -3.46289062 13.86328125 C-4.29806458 15.58068121 -5.14765424 17.29105738 -6 19 C-6.33 19 -6.66 19 -7 19 C-7.0272415 17.58344207 -7.04650467 16.16672955 -7.0625 14.75 C-7.07410156 13.96109375 -7.08570312 13.1721875 -7.09765625 12.359375 C-7.00385306 10.09308998 -6.63241063 8.1711105 -6 6 C-5.01 6 -4.02 6 -3 6 C-2.67 4.68 -2.34 3.36 -2 2 C-1.34 2 -0.68 2 0 2 C0 1.34 0 0.68 0 0 Z " fill="#f4e157" transform="translate(127,360)"/>
<path d="M0 0 C0.33 0 0.66 0 1 0 C1 1.98 1 3.96 1 6 C1.66 6.33 2.32 6.66 3 7 C1.68 7.33 0.36 7.66 -1 8 C-0.95875 8.78375 -0.9175 9.5675 -0.875 10.375 C-1 13 -1 13 -3 15 C-3.71408334 16.98356483 -4.38617742 18.98315437 -5 21 C-6.92286539 14.8578976 -4.65527876 9.00795174 -1.875 3.4375 C-1.25625 2.303125 -0.6375 1.16875 0 0 Z " fill="#f4e157" transform="translate(108,199)"/>
<path d="M0 0 C0.33 0 0.66 0 1 0 C0.5547115 5.27315333 -0.08373163 10.01770224 -2 15 C-2.99 15 -3.98 15 -5 15 C-5.33 15.99 -5.66 16.98 -6 18 C-6.66 18 -7.32 18 -8 18 C-6.65150163 13.64029169 -4.95092154 9.68658562 -2.875 5.625 C-2.33617188 4.56539062 -1.79734375 3.50578125 -1.2421875 2.4140625 C-0.83226563 1.61742187 -0.42234375 0.82078125 0 0 Z " fill="#f4e157" transform="translate(117,181)"/>
<path d="M0 0 C6.93 0 13.86 0 21 0 C20.15522369 3.37910524 19.14057406 6.49005738 17.9375 9.75 C17.57527344 10.73484375 17.21304687 11.7196875 16.83984375 12.734375 C16.56269531 13.48203125 16.28554688 14.2296875 16 15 C15.67 15 15.34 15 15 15 C15.33 11.7 15.66 8.4 16 5 C16.66 5 17.32 5 18 5 C18 3.68 18 2.36 18 1 C12.06 1 6.12 1 0 1 C0 0.67 0 0.34 0 0 Z M13 15 C15 16 15 16 15 16 Z " fill="#f4e157" transform="translate(407,359)"/>
<path d="M0 0 C0.33 0 0.66 0 1 0 C1 1.65 1 3.3 1 5 C0.01 5 -0.98 5 -2 5 C-2 5.66 -2 6.32 -2 7 C-1.01 7.33 -0.02 7.66 1 8 C0.360625 8.28875 -0.27875 8.5775 -0.9375 8.875 C-3.15206079 9.82823451 -3.15206079 9.82823451 -4 12 C-4.66 12 -5.32 12 -6 12 C-6 12.66 -6 13.32 -6 14 C-6.99 14.33 -7.98 14.66 -9 15 C-7.50829734 10.0276578 -5.39542583 5.58154261 -3 1 C-2.67 1.66 -2.34 2.32 -2 3 C-1.34 3 -0.68 3 0 3 C0 2.01 0 1.02 0 0 Z " fill="#f4e157" transform="translate(44,334)"/>
<path d="M0 0 C2.29648357 2.89585905 4.04347557 5.8172031 5.6875 9.125 C6.12449219 9.99382812 6.56148438 10.86265625 7.01171875 11.7578125 C8 14 8 14 8 16 C7.01 16.33 6.02 16.66 5 17 C4.731875 16.401875 4.46375 15.80375 4.1875 15.1875 C3.15538559 12.96792308 3.15538559 12.96792308 1.4375 11.6875 C-0.54769581 9.35705275 -0.30483831 7.82418334 -0.1875 4.8125 C-0.16042969 3.91144531 -0.13335937 3.01039063 -0.10546875 2.08203125 C-0.07066406 1.39496094 -0.03585937 0.70789063 0 0 Z " fill="#f4e157" transform="translate(352,189)"/>
<path d="M0 0 C0.99 0 1.98 0 3 0 C2.53411505 5.70709064 1.06242216 9.15939723 -2 14 C-2.99 14 -3.98 14 -5 14 C-4.46515599 8.65155992 -2.53309233 4.64203897 0 0 Z " fill="#f4e157" transform="translate(75,265)"/>
<path d="M0 0 C2.35082212 2.89642841 3.83519406 5.65356331 5.1875 9.125 C5.53167969 9.99382812 5.87585938 10.86265625 6.23046875 11.7578125 C7 14 7 14 7 16 C6.34 16 5.68 16 5 16 C4.67 16.66 4.34 17.32 4 18 C1.13035626 11.74827614 -0.51137226 6.90352555 0 0 Z " fill="#f4e157" transform="translate(288,264)"/>
<path d="M0 0 C0.33 0 0.66 0 1 0 C0.67422369 7.16707877 -2.65443628 12.76927124 -6 19 C-6.33 18.34 -6.66 17.68 -7 17 C-8.98 17.99 -8.98 17.99 -11 19 C-10.34 17.35 -9.68 15.7 -9 14 C-8.34 14 -7.68 14 -7 14 C-7 13.34 -7 12.68 -7 12 C-6.34 12 -5.68 12 -5 12 C-4.80664062 11.38511719 -4.61328125 10.77023438 -4.4140625 10.13671875 C-4.15367187 9.32847656 -3.89328125 8.52023438 -3.625 7.6875 C-3.36976563 6.88699219 -3.11453125 6.08648437 -2.8515625 5.26171875 C-2 3 -2 3 0 0 Z " fill="#f4e157" transform="translate(219,174)"/>
<path d="M0 0 C0.33 0.66 0.66 1.32 1 2 C0.30502993 3.72087828 -0.39960596 5.43918941 -1.17578125 7.125 C-2.12767293 9.19254945 -2.12767293 9.19254945 -3 12.25 C-3.98771509 14.96621649 -4.70864666 16.281485 -7 18 C-7.66 18 -8.32 18 -9 18 C-7.41579353 12.13843607 -4.37339097 4.37339097 0 0 Z " fill="#f4e157" transform="translate(127,163)"/>
<path d="M0 0 C0.33 0 0.66 0 1 0 C1.05389087 1.95803507 1.09274217 3.91648909 1.125 5.875 C1.14820313 6.96554688 1.17140625 8.05609375 1.1953125 9.1796875 C1 12 1 12 -1 14 C-1.66 13.34 -2.32 12.68 -3 12 C-3.33 12.99 -3.66 13.98 -4 15 C-4.66 15 -5.32 15 -6 15 C-5.39644592 11.14974121 -4.23227397 8.13898841 -2.4375 4.6875 C-1.98246094 3.80449219 -1.52742187 2.92148438 -1.05859375 2.01171875 C-0.53458984 1.01591797 -0.53458984 1.01591797 0 0 Z " fill="#f4e157" transform="translate(174,65)"/>
<path d="M0 0 C2.16874252 0.50603992 3.99967627 0.99983813 6 2 C5.67 3.32 5.34 4.64 5 6 C5 5.34 5 4.68 5 4 C4.01 4.495 4.01 4.495 3 5 C3 5.66 3 6.32 3 7 C2 8 1 9 0 10 C-1.17574711 12.09989652 -1.17574711 12.09989652 -2 14 C-2.33 14 -2.66 14 -3 14 C-3.48990279 8.93767116 -1.7106322 4.67369154 0 0 Z " fill="#f4e157" transform="translate(279,52)"/>
<path d="M0 0 C0.99 0 1.98 0 3 0 C3.474375 0.66 3.94875 1.32 4.4375 2 C5.2109375 2.99 5.2109375 2.99 6 4 C7.32 4 8.64 4 10 4 C9.38722388 6.96175123 8.74627478 8.38058783 7 11 C6.34 11 5.68 11 5 11 C3.35 7.37 1.7 3.74 0 0 Z " fill="#f4e157" transform="translate(77,440)"/>
<path d="M0 0 C0.66 0 1.32 0 2 0 C0.65150163 4.35970831 -1.04907846 8.31341438 -3.125 12.375 C-3.66382813 13.43460937 -4.20265625 14.49421875 -4.7578125 15.5859375 C-5.16773438 16.38257813 -5.57765625 17.17921875 -6 18 C-6.66 17.67 -7.32 17.34 -8 17 C-8 16.34 -8 15.68 -8 15 C-7.34 15 -6.68 15 -6 15 C-6 13.02 -6 11.04 -6 9 C-4.68 8.34 -3.36 7.68 -2 7 C-2.04125 6.21625 -2.0825 5.4325 -2.125 4.625 C-2 2 -2 2 0 0 Z " fill="#f4e157" transform="translate(399,413)"/>
<path d="M0 0 C0.99 0 1.98 0 3 0 C3.53012738 1.28788008 4.0488329 2.58046678 4.5625 3.875 C4.99755859 4.95394531 4.99755859 4.95394531 5.44140625 6.0546875 C6 8 6 8 5 10 C5.66 10 6.32 10 7 10 C7.66 11.32 8.32 12.64 9 14 C8.01 15.485 8.01 15.485 7 17 C5.82592979 14.73272667 4.66060261 12.46165376 3.5 10.1875 C3.16613281 9.54490234 2.83226562 8.90230469 2.48828125 8.24023438 C0.99760916 5.30452301 0 3.33873483 0 0 Z " fill="#f4e157" transform="translate(42,367)"/>
<path d="M0 0 C0.99 0 1.98 0 3 0 C3.33 1.32 3.66 2.64 4 4 C4.66 4 5.32 4 6 4 C7.41433748 7.30012079 8.61233695 10.41411676 9 14 C8.34 14.66 7.68 15.32 7 16 C5.82845707 13.71070947 4.66261926 11.41881638 3.5 9.125 C3.16613281 8.47402344 2.83226562 7.82304687 2.48828125 7.15234375 C0 2.2265625 0 2.2265625 0 0 Z " fill="#f4e157" transform="translate(243,174)"/>
<path d="M0 0 C0.66 0.33 1.32 0.66 2 1 C0.68938409 5.23429756 -0.94356259 9.07407404 -3 13 C-5.35953094 10.64046906 -5.49141413 9.22104383 -6 6 C-5.01 5.34 -4.02 4.68 -3 4 C-2.34 4.33 -1.68 4.66 -1 5 C-0.67 3.35 -0.34 1.7 0 0 Z " fill="#f4e157" transform="translate(338,332)"/>
<path d="M0 0 C0.66 0 1.32 0 2 0 C1.24470474 3.86252257 -0.39484772 7.20180367 -2.0625 10.75 C-2.88427734 12.50570312 -2.88427734 12.50570312 -3.72265625 14.296875 C-4.14417969 15.18890625 -4.56570312 16.0809375 -5 17 C-5.33 17 -5.66 17 -6 17 C-6 15.02 -6 13.04 -6 11 C-5.67 11 -5.34 11 -5 11 C-4.690625 10.05125 -4.38125 9.1025 -4.0625 8.125 C-3 5 -3 5 -2 3 C-1.34 3 -0.68 3 0 3 C0 2.01 0 1.02 0 0 Z " fill="#f4e157" transform="translate(196,221)"/>
<path d="M0 0 C1.32 0 2.64 0 4 0 C7.66871166 8.13496933 7.66871166 8.13496933 8 12 C7.34 12.66 6.68 13.32 6 14 C4.02 9.38 2.04 4.76 0 0 Z " fill="#f4e157" transform="translate(368,429)"/>
<path d="M0 0 C0.66 0 1.32 0 2 0 C2.680625 1.670625 2.680625 1.670625 3.375 3.375 C4.72465986 6.96199008 4.72465986 6.96199008 7 9 C7.8515625 10.9453125 7.8515625 10.9453125 8.625 13.125 C8.88539063 13.84945313 9.14578125 14.57390625 9.4140625 15.3203125 C9.70410156 16.15175781 9.70410156 16.15175781 10 17 C9.34 17.33 8.68 17.66 8 18 C6.66180502 15.3773768 5.3292849 12.75213401 4 10.125 C3.6184375 9.37863281 3.236875 8.63226563 2.84375 7.86328125 C2.4828125 7.14785156 2.121875 6.43242187 1.75 5.6953125 C1.41484375 5.03547363 1.0796875 4.37563477 0.734375 3.69580078 C0 2 0 2 0 0 Z " fill="#f4e157" transform="translate(356,404)"/>
<path d="M0 0 C1.625 1.6875 1.625 1.6875 3 4 C2.5625 6.625 2.5625 6.625 1 9 C-2.125 10.3125 -2.125 10.3125 -5 11 C-3.55049545 7.2089881 -1.84827434 3.6125362 0 0 Z " fill="#f4e157" transform="translate(64,288)"/>
<path d="M0 0 C1.1796875 1.609375 1.1796875 1.609375 2 4 C0.8828125 7.015625 0.8828125 7.015625 -0.875 10.25 C-1.44992188 11.32765625 -2.02484375 12.4053125 -2.6171875 13.515625 C-3.07351562 14.33546875 -3.52984375 15.1553125 -4 16 C-4.33 16 -4.66 16 -5 16 C-5.33188114 11.243037 -4.62235719 8.93353579 -2 5 C-1.30177383 3.34630643 -0.62501395 1.68272986 0 0 Z " fill="#f4e157" transform="translate(100,412)"/>
<path d="M0 0 C0.66 0 1.32 0 2 0 C2 0.66 2 1.32 2 2 C2.598125 2.165 3.19625 2.33 3.8125 2.5 C7.18527798 4.81276204 7.8331548 8.19891337 9 12 C8.01 12.33 7.02 12.66 6 13 C4.02 8.71 2.04 4.42 0 0 Z " fill="#f4e157" transform="translate(273,236)"/>
<path d="M0 0 C0.99 0.495 0.99 0.495 2 1 C2.625 4.0625 2.625 4.0625 3 7 C3.99 7 4.98 7 6 7 C6.33 9.64 6.66 12.28 7 15 C3.02527913 11.29939781 0.12867164 8.27319898 -0.1875 2.6875 C-0.125625 1.800625 -0.06375 0.91375 0 0 Z " fill="#f4e157" transform="translate(437,301)"/>
<path d="M0 0 C0.66 0 1.32 0 2 0 C0.35433477 5.68502535 -2.29032784 10.76681636 -5 16 C-6.09346477 13.22681526 -6.03742841 12.10756865 -5.0390625 9.23828125 C-4.57242187 8.27277344 -4.10578125 7.30726563 -3.625 6.3125 C-3.16351563 5.33925781 -2.70203125 4.36601562 -2.2265625 3.36328125 C-1 1 -1 1 0 0 Z " fill="#f4e157" transform="translate(440,358)"/>
<path d="M0 0 C0.33 0.66 0.66 1.32 1 2 C1.66 2 2.32 2 3 2 C3 2.99 3 3.98 3 5 C3.66 5 4.32 5 5 5 C5.33 7.31 5.66 9.62 6 12 C5.01 12.495 5.01 12.495 4 13 C3.13372601 11.40233897 2.28233535 9.79660056 1.4375 8.1875 C0.96183594 7.29417969 0.48617188 6.40085937 -0.00390625 5.48046875 C-1 3 -1 3 0 0 Z " fill="#f4e157" transform="translate(400,344)"/>
<path d="M0 0 C1 2 1 2 0.375 4.0625 C-1 6 -1 6 -3.625 6.75 C-4.800625 6.87375 -4.800625 6.87375 -6 7 C-5.938125 7.78375 -5.87625 8.5675 -5.8125 9.375 C-5.874375 10.24125 -5.93625 11.1075 -6 12 C-6.99 12.66 -7.98 13.32 -9 14 C-8.5289356 9.85463326 -8.0080208 7.0080208 -5 4 C-4.01 4 -3.02 4 -2 4 C-2 3.01 -2 2.02 -2 1 C-1.34 0.67 -0.68 0.34 0 0 Z " fill="#f4e157" transform="translate(369,275)"/>
<path d="M0 0 C2.29158942 2.89818662 4.07862366 5.83140544 5.75 9.125 C6.19859375 9.99382812 6.6471875 10.86265625 7.109375 11.7578125 C7.40328125 12.49773437 7.6971875 13.23765625 8 14 C7.67 14.66 7.34 15.32 7 16 C2.94054924 12.25460417 0.21184513 7.54214156 -0.25 2 C-0.1675 1.34 -0.085 0.68 0 0 Z " fill="#f4e157" transform="translate(360,205)"/>
<path d="M0 0 C0.33 0.99 0.66 1.98 1 3 C-0.1875 5.25 -0.1875 5.25 -2 8 C-5.24118765 13.19168208 -5.24118765 13.19168208 -7 19 C-7.66 19 -8.32 19 -9 19 C-9.33 19.66 -9.66 20.32 -10 21 C-10 20.01 -10 19.02 -10 18 C-9.34 18 -8.68 18 -8 18 C-7.896875 17.29875 -7.79375 16.5975 -7.6875 15.875 C-6.90257613 12.59259109 -5.55636715 9.98822493 -4 7 C-3.31471955 5.34089996 -2.64108137 3.67667436 -2 2 C-1.34 2 -0.68 2 0 2 C0 1.34 0 0.68 0 0 Z " fill="#f4e157" transform="translate(150,315)"/>
<path d="M0 0 C1.04449911 3.13349732 0.93423645 3.98968256 0 7 C0.66 7 1.32 7 2 7 C1.67 7.99 1.34 8.98 1 10 C-0.32 10 -1.64 10 -3 10 C-3.33 11.32 -3.66 12.64 -4 14 C-4.66 14 -5.32 14 -6 14 C-4.50829734 9.0276578 -2.39542583 4.58154261 0 0 Z " fill="#f4e157" transform="translate(58,299)"/>
<path d="M0 0 C0.99 0.33 1.98 0.66 3 1 C1.68 3.64 0.36 6.28 -1 9 C-1.99 9 -2.98 9 -4 9 C-3.38461538 3.46153846 -3.38461538 3.46153846 -1.4375 1.125 C-0.963125 0.75375 -0.48875 0.3825 0 0 Z " fill="#f4e157" transform="translate(182,53)"/>
<path d="M0 0 C0.33 0.66 0.66 1.32 1 2 C0.00390625 4.3828125 0.00390625 4.3828125 -1.4375 7.125 C-1.91058594 8.03507813 -2.38367188 8.94515625 -2.87109375 9.8828125 C-3.24363281 10.58148438 -3.61617187 11.28015625 -4 12 C-4.33 12 -4.66 12 -5 12 C-5.33 9.36 -5.66 6.72 -6 4 C-4.02 2.68 -2.04 1.36 0 0 Z " fill="#f4e157" transform="translate(226,163)"/>
<path d="M0 0 C2.52631142 3.12781414 4.42373366 6.29577411 6 10 C5.67 10.99 5.34 11.98 5 13 C4.34 13 3.68 13 3 13 C0.78145293 8.37802694 -0.38281159 5.23175837 0 0 Z " fill="#f4e157" transform="translate(308,101)"/>
<path d="M0 0 C0.33 0.66 0.66 1.32 1 2 C1.66 2 2.32 2 3 2 C3.83819158 3.62249941 4.6704116 5.24808497 5.5 6.875 C5.9640625 7.77992188 6.428125 8.68484375 6.90625 9.6171875 C8 12 8 12 8 14 C7.01 13.67 6.02 13.34 5 13 C5 12.01 5 11.02 5 10 C4.34 10 3.68 10 3 10 C0 3.375 0 3.375 0 0 Z " fill="#f4e157" transform="translate(280,250)"/>
<path d="M0 0 C0.33 1.32 0.66 2.64 1 4 C0.34 4 -0.32 4 -1 4 C-1.08636719 4.60328125 -1.17273438 5.2065625 -1.26171875 5.828125 C-2.42367067 12.4373928 -2.42367067 12.4373928 -5.625 15.5625 C-6.40875 16.036875 -7.1925 16.51125 -8 17 C-6.3341708 10.83643195 -3.12194714 5.51740344 0 0 Z " fill="#f4e157" transform="translate(102,211)"/>
<path d="M0 0 C0.74362793 0.01047363 1.48725586 0.02094727 2.25341797 0.03173828 C3.46191406 0.04140625 3.46191406 0.04140625 4.69482422 0.05126953 C5.95746094 0.07640625 5.95746094 0.07640625 7.24560547 0.10205078 C8.51984375 0.11558594 8.51984375 0.11558594 9.81982422 0.12939453 C11.9202043 0.15299431 14.02043991 0.18886595 16.12060547 0.22705078 C16.12060547 0.55705078 16.12060547 0.88705078 16.12060547 1.22705078 C10.51060547 1.22705078 4.90060547 1.22705078 -0.87939453 1.22705078 C-1.20939453 2.54705078 -1.53939453 3.86705078 -1.87939453 5.22705078 C-2.53939453 5.22705078 -3.19939453 5.22705078 -3.87939453 5.22705078 C-4.20939453 5.88705078 -4.53939453 6.54705078 -4.87939453 7.22705078 C-3.810977 0.46040642 -3.810977 0.46040642 0 0 Z " fill="#f4e157" transform="translate(183.87939453125,48.77294921875)"/>
<path d="M0 0 C2.75847687 2.75847687 4.22445479 5.51013529 6 9 C5.67 9.99 5.34 10.98 5 12 C4.34 11.67 3.68 11.34 3 11 C3 10.34 3 9.68 3 9 C2.34 9 1.68 9 1 9 C0.63877119 7.68942607 0.28619689 6.37646376 -0.0625 5.0625 C-0.35833984 3.96615234 -0.35833984 3.96615234 -0.66015625 2.84765625 C-0.77230469 2.23792969 -0.88445312 1.62820312 -1 1 C-0.67 0.67 -0.34 0.34 0 0 Z " fill="#f4e157" transform="translate(272,227)"/>
<path d="M0 0 C1.98 0.99 1.98 0.99 4 2 C3.67 2.99 3.34 3.98 3 5 C3.66 5 4.32 5 5 5 C5 5.99 5 6.98 5 8 C5.66 8 6.32 8 7 8 C7.33 8.99 7.66 9.98 8 11 C7.01 12.485 7.01 12.485 6 14 C4.99515796 12.04414675 3.99626195 10.08523763 3 8.125 C2.1646875 6.48917969 2.1646875 6.48917969 1.3125 4.8203125 C0 2 0 2 0 0 Z " fill="#f4e157" transform="translate(256,200)"/>
<path d="M0 0 C1 3 1 3 0.22265625 4.82421875 C-0.8515625 6.54947917 -1.92578125 8.27473958 -3 10 C-3.99 10 -4.98 10 -6 10 C-6 10.99 -6 11.98 -6 13 C-6.66 13 -7.32 13 -8 13 C-6.71462629 7.97535733 -4.78278236 5.4917991 -1 2 C-0.67 1.34 -0.34 0.68 0 0 Z " fill="#f4e157" transform="translate(137,145)"/>
<path d="M0 0 C2.91375388 1.45687694 3.35777779 3.50753903 4.6875 6.4375 C5.14511719 7.42621094 5.60273438 8.41492188 6.07421875 9.43359375 C6.37972656 10.28050781 6.68523437 11.12742188 7 12 C6.67 12.66 6.34 13.32 6 14 C3.10067643 11.60490662 2.49831724 9.68754757 2 6 C1.01 5.67 0.02 5.34 -1 5 C-0.67 3.35 -0.34 1.7 0 0 Z " fill="#f4e157" transform="translate(325,135)"/>
<path d="M0 0 C2.25 -0.0625 2.25 -0.0625 5 1 C6.78217572 3.83377008 8.08957414 6.77803836 9 10 C8.67 10.66 8.34 11.32 8 12 C7.34 12 6.68 12 6 12 C5.87625 11.2575 5.7525 10.515 5.625 9.75 C5.03438237 7.15128245 4.43713552 5.23554414 3 3 C2.01 2.67 1.02 2.34 0 2 C0 1.34 0 0.68 0 0 Z " fill="#f4e157" transform="translate(279,48)"/>
<path d="M0 0 C3.42298577 1.14099526 4.14758766 2.00085621 6 5 C6 5.99 6 6.98 6 8 C5.34 8 4.68 8 4 8 C4 7.34 4 6.68 4 6 C3.01 6.33 2.02 6.66 1 7 C0.34 5.02 -0.32 3.04 -1 1 C-0.67 0.67 -0.34 0.34 0 0 Z " fill="#f4e157" transform="translate(376,442)"/>
<path d="M0 0 C0.99 0 1.98 0 3 0 C3.0825 0.556875 3.165 1.11375 3.25 1.6875 C4.22610013 4.69714206 5.95188814 6.62154752 8 9 C7.34 10.32 6.68 11.64 6 13 C4.99491199 11.21118264 3.99607264 9.41885304 3 7.625 C2.1646875 6.12839844 2.1646875 6.12839844 1.3125 4.6015625 C0 2 0 2 0 0 Z " fill="#f4e157" transform="translate(61,406)"/>
<path d="M0 0 C0.66 0 1.32 0 2 0 C2.66 1.98 3.32 3.96 4 6 C4.99 6 5.98 6 7 6 C6.67 7.32 6.34 8.64 6 10 C4.68 10 3.36 10 2 10 C1.34 6.7 0.68 3.4 0 0 Z " fill="#f4e157" transform="translate(327,339)"/>
<path d="M0 0 C0.99 0 1.98 0 3 0 C2.35550393 3.01217112 1.34977818 5.51655836 -0.0625 8.25 C-0.42472656 8.95640625 -0.78695312 9.6628125 -1.16015625 10.390625 C-1.43730469 10.92171875 -1.71445313 11.4528125 -2 12 C-2.33 12 -2.66 12 -3 12 C-3.25 6.375 -3.25 6.375 -1 3 C-0.67 2.01 -0.34 1.02 0 0 Z " fill="#f4e157" transform="translate(111,390)"/>
<path d="M0 0 C0.99 0 1.98 0 3 0 C3 1.65 3 3.3 3 5 C3.99 5.33 4.98 5.66 6 6 C5.67 6.99 5.34 7.98 5 9 C5.66 9 6.32 9 7 9 C7 10.65 7 12.3 7 14 C3.94998169 10.33997803 0 4.92148529 0 0 Z " fill="#f4e157" transform="translate(50,384)"/>
<path d="M0 0 C0.99 0 1.98 0 3 0 C3 0.99 3 1.98 3 3 C2.34 3 1.68 3 1 3 C0.71125 3.969375 0.4225 4.93875 0.125 5.9375 C-1 9 -1 9 -3 10 C-3 8.02 -3 6.04 -3 4 C-2.34 4 -1.68 4 -1 4 C-0.67 2.68 -0.34 1.36 0 0 Z " fill="#f4e157" transform="translate(55,309)"/>
<path d="M0 0 C2.77398263 3.46747828 4.95912413 7.06402511 7 11 C6.67 11.66 6.34 12.32 6 13 C5.34 12.67 4.68 12.34 4 12 C4 11.01 4 10.02 4 9 C3.01 8.67 2.02 8.34 1 8 C-0.25 5.0625 -0.25 5.0625 -1 2 C-0.67 1.34 -0.34 0.68 0 0 Z " fill="#f4e157" transform="translate(337,160)"/>
<path d="M0 0 C1.72046505 2.2939534 3.4094295 4.61414424 5 7 C4.67 7.99 4.34 8.98 4 10 C4 9.34 4 8.68 4 8 C3.34 8 2.68 8 2 8 C2 9.32 2 10.64 2 12 C1.34 11.67 0.68 11.34 0 11 C0 7.37 0 3.74 0 0 Z " fill="#f4e157" transform="translate(320,125)"/>
<path d="M0 0 C0.66 0 1.32 0 2 0 C0.42527704 4.46171506 -1.59377029 9.79688514 -6 12 C-5.67 10.35 -5.34 8.7 -5 7 C-4.01 6.67 -3.02 6.34 -2 6 C-2 4.68 -2 3.36 -2 2 C-1.34 2 -0.68 2 0 2 C0 1.34 0 0.68 0 0 Z " fill="#f4e157" transform="translate(246,126)"/>
<path d="M0 0 C0.99 0.33 1.98 0.66 3 1 C3.94921875 3.06640625 3.94921875 3.06640625 4.6875 5.5625 C4.93886719 6.38878906 5.19023437 7.21507813 5.44921875 8.06640625 C5.63097656 8.70449219 5.81273437 9.34257813 6 10 C4.68 9.67 3.36 9.34 2 9 C1.34 6.03 0.68 3.06 0 0 Z " fill="#f4e157" transform="translate(286,59)"/>
<path d="M0 0 C0 0.99 0 1.98 0 3 C0.66 3 1.32 3 2 3 C1.67 4.32 1.34 5.64 1 7 C0.34 5.68 -0.32 4.36 -1 3 C-1.66 4.32 -2.32 5.64 -3 7 C-3.66 5.02 -4.32 3.04 -5 1 C-3 0 -3 0 0 0 Z " fill="#f4e157" transform="translate(423,383)"/>
<path d="M0 0 C1.32 0.66 2.64 1.32 4 2 C3.690625 2.598125 3.38125 3.19625 3.0625 3.8125 C1.89790296 6.08956772 1.89790296 6.08956772 1 9 C-0.32 8.34 -1.64 7.68 -3 7 C-2.690625 6.401875 -2.38125 5.80375 -2.0625 5.1875 C-0.89790296 2.91043228 -0.89790296 2.91043228 0 0 Z " fill="#f4e157" transform="translate(419,375)"/>
<path d="M0 0 C2.74792483 3.40219265 6 7.48464588 6 12 C5.01 12 4.02 12 3 12 C0.58314288 7.77050005 -0.34833144 4.87664009 0 0 Z " fill="#f4e157" transform="translate(314,113)"/>
<path d="M0 0 C0 3.26974824 -0.50996511 4.17677599 -2 7 C-2.495 8.216875 -2.99 9.43375 -3.5 10.6875 C-5 14 -5 14 -7 15 C-7 14.01 -7 13.02 -7 12 C-6.34 12 -5.68 12 -5 12 C-4.89042969 11.38511719 -4.78085938 10.77023438 -4.66796875 10.13671875 C-4.50941406 9.32847656 -4.35085937 8.52023438 -4.1875 7.6875 C-4.03667969 6.88699219 -3.88585937 6.08648437 -3.73046875 5.26171875 C-2.92427764 2.76554413 -1.97947998 1.67577894 0 0 Z " fill="#f4e157" transform="translate(255,108)"/>
<path d="M0 0 C0.99 0 1.98 0 3 0 C1.77782954 4.04256383 0.37245704 7.49288959 -2 11 C-2.33 11 -2.66 11 -3 11 C-3.37017995 5.57069409 -3.37017995 5.57069409 -1.5 2.6875 C-1.005 2.130625 -0.51 1.57375 0 1 C0 0.67 0 0.34 0 0 Z " fill="#f4e157" transform="translate(117,379)"/>
<path d="M0 0 C0.88336837 2.4667645 1.1312406 3.63859372 0.22265625 6.140625 C-0.16019531 6.83671875 -0.54304688 7.5328125 -0.9375 8.25 C-1.31777344 8.95640625 -1.69804688 9.6628125 -2.08984375 10.390625 C-2.39019531 10.92171875 -2.69054687 11.4528125 -3 12 C-3.33 12 -3.66 12 -4 12 C-4.17942163 8.05272412 -4.09350689 5.4019487 -2 2 C-1.34 2 -0.68 2 0 2 C0 1.34 0 0.68 0 0 Z " fill="#f4e157" transform="translate(127,360)"/>
<path d="M0 0 C0.33 0.66 0.66 1.32 1 2 C1.66 2 2.32 2 3 2 C2.46930939 5.82097239 1.50298434 8.06171403 -1 11 C-1.125 3.375 -1.125 3.375 0 0 Z " fill="#f4e157" transform="translate(353,299)"/>
<path d="M0 0 C0.33 0 0.66 0 1 0 C1.64165788 5.26159459 0.20577001 7.68592849 -2.90625 11.6796875 C-3.2671875 12.11539063 -3.628125 12.55109375 -4 13 C-4.33 12.34 -4.66 11.68 -5 11 C-4.00390625 8.3984375 -4.00390625 8.3984375 -2.5625 5.375 C-2.08941406 4.37210938 -1.61632812 3.36921875 -1.12890625 2.3359375 C-0.75636719 1.56507813 -0.38382813 0.79421875 0 0 Z " fill="#f4e157" transform="translate(137,139)"/>
<path d="M0 0 C3 1 3 1 5 4 C5.33 4.99 5.66 5.98 6 7 C5.67 7.66 5.34 8.32 5 9 C5.66 9.33 6.32 9.66 7 10 C6.34 10.66 5.68 11.32 5 12 C4.16180842 10.37750059 3.3295884 8.75191503 2.5 7.125 C2.0359375 6.22007812 1.571875 5.31515625 1.09375 4.3828125 C0 2 0 2 0 0 Z " fill="#f4e157" transform="translate(345,383)"/>
<path d="M0 0 C1.2065625 0.0309375 1.2065625 0.0309375 2.4375 0.0625 C2.1075 1.3825 1.7775 2.7025 1.4375 4.0625 C0.7775 4.0625 0.1175 4.0625 -0.5625 4.0625 C-0.8925 5.0525 -1.2225 6.0425 -1.5625 7.0625 C-2.2225 5.0825 -2.8825 3.1025 -3.5625 1.0625 C-2.5625 0.0625 -2.5625 0.0625 0 0 Z " fill="#f4e157" transform="translate(395.5625,329.9375)"/>
<path d="M0 0 C0.66 0 1.32 0 2 0 C1.625 1.9375 1.625 1.9375 1 4 C0.01 4.495 0.01 4.495 -1 5 C-1.33 5.99 -1.66 6.98 -2 8 C-2.66 8 -3.32 8 -4 8 C-4.33 8.66 -4.66 9.32 -5 10 C-5.33 9.01 -5.66 8.02 -6 7 C-4.75 4.8125 -4.75 4.8125 -3 3 C-2.01 3 -1.02 3 0 3 C0 2.01 0 1.02 0 0 Z " fill="#f4e157" transform="translate(350,310)"/>
<path d="M0 0 C0.99 0 1.98 0 3 0 C1.84414715 3.91211733 0.64465038 6.8745041 -2 10 C-1.85950482 8.52031676 -1.71245174 7.04125484 -1.5625 5.5625 C-1.48128906 4.73878906 -1.40007812 3.91507813 -1.31640625 3.06640625 C-1 1 -1 1 0 0 Z " fill="#f4e157" transform="translate(205,201)"/>
<path d="M0 0 C0.66 0 1.32 0 2 0 C2.33 2.31 2.66 4.62 3 7 C1.68 7.33 0.36 7.66 -1 8 C-2.2077558 4.37673261 -1.54311128 3.35853631 0 0 Z " fill="#f4e157" transform="translate(322,133)"/>
<path d="M0 0 C0.66 0 1.32 0 2 0 C1.48847632 3.78527521 0.79154158 5.44108688 -2 8 C-2.33 8.99 -2.66 9.98 -3 11 C-3.66 10.67 -4.32 10.34 -5 10 C-3.35 6.7 -1.7 3.4 0 0 Z " fill="#f4e157" transform="translate(242,125)"/>
<path d="M0 0 C1.1875 1.5 1.1875 1.5 2 4 C1.27101296 6.78824238 0.1843275 9.37665092 -1 12 C-2.125 10.375 -2.125 10.375 -3 8 C-2.25465624 5.13329322 -1.32208367 2.64416734 0 0 Z " fill="#f4e157" transform="translate(153,108)"/>
<path d="M0 0 C-0.33 1.98 -0.66 3.96 -1 6 C-0.34 6 0.32 6 1 6 C1 7.65 1 9.3 1 11 C-1.64465038 7.8745041 -2.84414715 4.91211733 -4 1 C-2 0 -2 0 0 0 Z " fill="#f4e157" transform="translate(242,163)"/>
<path d="M0 0 C0.66 0 1.32 0 2 0 C3 3 3 3 1.5625 6.1875 C0.7890625 7.5796875 0.7890625 7.5796875 0 9 C-0.66 9 -1.32 9 -2 9 C-1.125 2.25 -1.125 2.25 0 0 Z " fill="#f4e157" transform="translate(88,435)"/>
<path d="M0 0 C1.953125 0.7109375 1.953125 0.7109375 4 2 C4.609375 4.1640625 4.609375 4.1640625 4.75 6.625 C4.80671875 7.44226563 4.8634375 8.25953125 4.921875 9.1015625 C4.94765625 9.72804688 4.9734375 10.35453125 5 11 C2.03947516 7.63576723 1.07710178 4.30840713 0 0 Z " fill="#f4e157" transform="translate(68,419)"/>
<path d="M0 0 C3.875 0.875 3.875 0.875 5 2 C5.04092937 4.33297433 5.04241723 6.66705225 5 9 C0.57142857 3.85714286 0.57142857 3.85714286 0 0 Z " fill="#f4e157" transform="translate(351,395)"/>
<path d="M0 0 C2.52940738 3.13164723 4.44920018 6.27808042 6 10 C5.6875 12.375 5.6875 12.375 5 14 C4.54625 13.071875 4.0925 12.14375 3.625 11.1875 C2.0578367 7.96078611 2.0578367 7.96078611 0 5 C-0.125 2.3125 -0.125 2.3125 0 0 Z " fill="#f4e157" transform="translate(288,264)"/>
<path d="M0 0 C0.99 0 1.98 0 3 0 C3.66 1.98 4.32 3.96 5 6 C4.34 6.66 3.68 7.32 3 8 C0.37613513 4.93882432 0 4.26826873 0 0 Z " fill="#f4e157" transform="translate(376,242)"/>
<path d="M0 0 C0.33 0 0.66 0 1 0 C1 1.98 1 3.96 1 6 C1.66 6.33 2.32 6.66 3 7 C1.35 7.66 -0.3 8.32 -2 9 C-3 6 -3 6 -1.5625 2.8125 C-1.046875 1.884375 -0.53125 0.95625 0 0 Z " fill="#f4e157" transform="translate(108,199)"/>
<path d="M0 0 C0.33 0.99 0.66 1.98 1 3 C1.66 3 2.32 3 3 3 C2.42655063 5.86724686 2.1385485 6.8614515 0 9 C0 8.34 0 7.68 0 7 C-0.66 7 -1.32 7 -2 7 C-1.34 4.69 -0.68 2.38 0 0 Z " fill="#f4e157" transform="translate(443,347)"/>
<path d="M0 0 C2.52394612 3.12488567 4.39701907 6.31314387 6 10 C5.67 10.66 5.34 11.32 5 12 C4.67 10.68 4.34 9.36 4 8 C3.01 8 2.02 8 1 8 C0.67 5.36 0.34 2.72 0 0 Z " fill="#f4e157" transform="translate(314,316)"/>
<path d="M0 0 C0.99 0.33 1.98 0.66 3 1 C2.01 3.97 1.02 6.94 0 10 C-0.33 10 -0.66 10 -1 10 C-0.67 6.7 -0.34 3.4 0 0 Z " fill="#f4e157" transform="translate(92,427)"/>
<path d="M0 0 C0.66 0.99 1.32 1.98 2 3 C1.34 3 0.68 3 0 3 C0 4.98 0 6.96 0 9 C-1.32 9.33 -2.64 9.66 -4 10 C-2.8905928 6.51329166 -1.73662334 3.22515763 0 0 Z " fill="#f4e157" transform="translate(47,322)"/>
<path d="M0 0 C0.66 0.66 1.32 1.32 2 2 C0.35 4.64 -1.3 7.28 -3 10 C-4 6 -4 6 -2.0625 2.75 C-1.381875 1.8425 -0.70125 0.935 0 0 Z " fill="#f4e157" transform="translate(266,86)"/>
<path d="M0 0 C1.10191901 4.40767604 0.58706842 5.8922935 -1 10 C-1.66 10 -2.32 10 -3 10 C-3 10.66 -3 11.32 -3 12 C-3.66 11.67 -4.32 11.34 -5 11 C-3.35 7.37 -1.7 3.74 0 0 Z " fill="#f4e157" transform="translate(75,265)"/>
<path d="M0 0 C0.99 0 1.98 0 3 0 C1.7508258 3.45925163 0.32472205 6.14693203 -2 9 C-1.125 1.125 -1.125 1.125 0 0 Z " fill="#f4e157" transform="translate(187,238)"/>
<path d="M0 0 C0.66 0 1.32 0 2 0 C2.99 3.3 3.98 6.6 5 10 C4.01 10 3.02 10 2 10 C1.34 6.7 0.68 3.4 0 0 Z " fill="#f4e157" transform="translate(358,205)"/>
<path d="M0 0 C0.66 0 1.32 0 2 0 C2 0.99 2 1.98 2 3 C2.99 3.33 3.98 3.66 5 4 C5 5.32 5 6.64 5 8 C4.34 8 3.68 8 3 8 C2.67 7.01 2.34 6.02 2 5 C0.50014391 3.33289654 0.50014391 3.33289654 -1 2 C-0.67 1.34 -0.34 0.68 0 0 Z " fill="#f4e157" transform="translate(339,169)"/>
<path d="M0 0 C0.66 0 1.32 0 2 0 C2 0.66 2 1.32 2 2 C2.66 2 3.32 2 4 2 C4.33 1.34 4.66 0.68 5 0 C4.67 1.65 4.34 3.3 4 5 C2.68 4.67 1.36 4.34 0 4 C0 2.68 0 1.36 0 0 Z " fill="#f4e157" transform="translate(378,448)"/>
<path d="M0 0 C0.66 0 1.32 0 2 0 C1.56179109 4.55737263 1.14958831 7.57653445 -2 11 C-1.67 8.69 -1.34 6.38 -1 4 C-0.34 4 0.32 4 1 4 C0.67 2.68 0.34 1.36 0 0 Z " fill="#f4e157" transform="translate(403,402)"/>
<path d="M0 0 C0.66 0.33 1.32 0.66 2 1 C0.25 6.75 0.25 6.75 -2 9 C-2.33 7.68 -2.66 6.36 -3 5 C-2.34 5 -1.68 5 -1 5 C-0.67 3.35 -0.34 1.7 0 0 Z " fill="#f4e157" transform="translate(338,332)"/>
<path d="M0 0 C0.33 0 0.66 0 1 0 C0.56179109 4.55737263 0.14958831 7.57653445 -3 11 C-4.22376937 7.3286919 -3.61664584 6.40346492 -2 3 C-1.34 2.01 -0.68 1.02 0 0 Z " fill="#f4e157" transform="translate(219,174)"/>
<path d="M0 0 C0.66 0.33 1.32 0.66 2 1 C0.75023244 4.65316671 0.32901247 5.78065836 -3 8 C-2.25 2.25 -2.25 2.25 0 0 Z " fill="#f4e157" transform="translate(275,67)"/>
<path d="M0 0 C0.33 0.99 0.66 1.98 1 3 C0.67 3.66 0.34 4.32 0 5 C0.99 5.33 1.98 5.66 3 6 C2.34 7.32 1.68 8.64 1 10 C-2 4.25 -2 4.25 -2 2 C-1.34 2 -0.68 2 0 2 C0 1.34 0 0.68 0 0 Z " fill="#f4e157" transform="translate(59,396)"/>
<path d="M0 0 C0.33 1.32 0.66 2.64 1 4 C0.34 4 -0.32 4 -1 4 C-1 4.99 -1 5.98 -1 7 C-2.32 7.33 -3.64 7.66 -5 8 C-5 7.34 -5 6.68 -5 6 C-4.34 6 -3.68 6 -3 6 C-2.67 4.68 -2.34 3.36 -2 2 C-1.34 2 -0.68 2 0 2 C0 1.34 0 0.68 0 0 Z " fill="#f4e157" transform="translate(351,306)"/>
<path d="M0 0 C2 1 2 1 2.6328125 2.84765625 C2.79523438 3.57855469 2.95765625 4.30945313 3.125 5.0625 C3.29257812 5.79597656 3.46015625 6.52945312 3.6328125 7.28515625 C3.75398438 7.85105469 3.87515625 8.41695313 4 9 C3.34 9 2.68 9 2 9 C-0.29013653 5.5647952 -0.17842973 4.014669 0 0 Z " fill="#f4e157" transform="translate(437,301)"/>
<path d="M0 0 C0.66 0.33 1.32 0.66 2 1 C1.34 2.98 0.68 4.96 0 7 C-0.66 7 -1.32 7 -2 7 C-1.125 2.25 -1.125 2.25 0 0 Z " fill="#f4e157" transform="translate(179,257)"/>
<path d="M0 0 C2.15377564 2.62198774 3.40072174 4.64404172 4 8 C2.68 8 1.36 8 0 8 C0 5.36 0 2.72 0 0 Z " fill="#f4e157" transform="translate(348,181)"/>
<path d="M0 0 C0.98120464 3.05263664 0.98120464 4.94736336 0 8 C-1.32 8.33 -2.64 8.66 -4 9 C-2.80100302 5.9168649 -1.52299523 2.93720508 0 0 Z " fill="#f4e157" transform="translate(228,155)"/>
<path d="M0 0 C1.32 0.33 2.64 0.66 4 1 C4.33 3.31 4.66 5.62 5 8 C2.74754119 5.31158141 1.11786042 3.35358125 0 0 Z " fill="#f4e157" transform="translate(232,154)"/>
<path d="M0 0 C2 3 2 3 2 7 C1.01 7.33 0.02 7.66 -1 8 C-1.04241723 5.66705225 -1.04092937 3.33297433 -1 1 C-0.67 0.67 -0.34 0.34 0 0 Z " fill="#f4e157" transform="translate(176,64)"/>
<path d="M0 0 C0.66 1.32 1.32 2.64 2 4 C0.68 5.32 -0.64 6.64 -2 8 C-2 2 -2 2 0 0 Z " fill="#f4e157" transform="translate(70,280)"/>
<path d="M0 0 C1.9375 0.5 1.9375 0.5 4 2 C4.68790422 4.69658452 4.81946464 7.2017019 5 10 C2.35534962 6.8745041 1.15585285 3.91211733 0 0 Z " fill="#f4e157" transform="translate(268,225)"/>
<path d="M0 0 C0.66 0 1.32 0 2 0 C3.0625 1.875 3.0625 1.875 4 4 C3.67 4.66 3.34 5.32 3 6 C2.01 6 1.02 6 0 6 C0 4.02 0 2.04 0 0 Z " fill="#f4e157" transform="translate(237,158)"/>
<path d="M0 0 C0.66 0.33 1.32 0.66 2 1 C0.75023244 4.65316671 0.32901247 5.78065836 -3 8 C-1.125 1.125 -1.125 1.125 0 0 Z " fill="#f4e157" transform="translate(239,138)"/>
</svg>
