<?xml version="1.0" encoding="utf-8"?>
<!-- Generator: Adobe Illustrator 24.1.1, SVG Export Plug-In . SVG Version: 6.00 Build 0)  -->
<svg version="1.1" id="Layer_1" xmlns="http://www.w3.org/2000/svg" xmlns:xlink="http://www.w3.org/1999/xlink" x="0px" y="0px"
	 viewBox="0 0 512 512" style="enable-background:new 0 0 512 512;" xml:space="preserve">
<style type="text/css">
	.st0{fill:#f4e157;}
</style>
<g>
	<path class="st0" d="M25.6,377.6C11.5,377.6,0,366.1,0,352s11.5-25.6,25.6-25.6h268.8c25.6,0,51.2,51.2,38.4,51.2H25.6z M384,377.6
		c-14.1,0-25.6-11.5-25.6-25.6s11.5-25.6,25.6-25.6h102.4c14.1,0,25.6,11.5,25.6,25.6s-11.5,25.6-25.6,25.6H384z M272.2,32
		c7.1-12.3,22.7-16.5,35-9.4c12.3,7.1,16.5,22.7,9.4,35L139.8,364.7c-7.1,12.3-22.7,16.5-35,9.4c-12.3-7.1-16.5-22.7-9.4-35
		L272.2,32z M51.2,416c12.8-25.6,89.6-51.2,64-7.1c-4.5,7.8-18.5,31.5-41.8,71.1c-7.1,12.3-22.7,16.5-35,9.4
		c-12.3-7.1-16.5-22.7-9.4-35L51.2,416z M182.6,57.6c-7.1-12.3-2.8-27.9,9.4-35c12.3-7,27.9-2.8,35,9.4l44.6,77.5
		c7.1,12.3,2.8,27.9-9.4,35c-12.3,7.1-27.9,2.8-34.9-9.4L182.6,57.6z M281.6,236.8c-23-38.4,0-115.2,18.3-76.9l170.3,294.5
		c7,12.3,2.8,27.9-9.4,35c-12.3,7-27.9,2.8-35-9.4L281.6,236.8z"/>
</g>
</svg>